<?xml version="1.0" standalone="no"?>
<!DOCTYPE svg PUBLIC "-//W3C//DTD SVG 20010904//EN"
 "http://www.w3.org/TR/2001/REC-SVG-20010904/DTD/svg10.dtd">
<svg version="1.0" xmlns="http://www.w3.org/2000/svg"
 width="398.000000pt" height="214.000000pt" viewBox="0 0 398.000000 214.000000"
 preserveAspectRatio="xMidYMid meet">

<g transform="translate(0.000000,214.000000) scale(0.100000,-0.100000)"
fill="#000000" stroke="none">
<path d="M0 1070 l0 -1070 1990 0 1990 0 0 1070 0 1070 -1990 0 -1990 0 0
-1070z m1000 426 c63 -1 125 2 137 6 13 4 29 5 37 2 21 -8 36 -51 30 -83 -5
-26 1 -37 43 -83 66 -70 73 -85 73 -160 0 -82 -28 -132 -90 -165 -44 -23 -51
-24 -236 -21 -184 3 -192 4 -227 28 -48 32 -77 92 -77 158 0 70 13 97 70 153
48 46 50 51 50 103 0 60 17 81 55 70 11 -3 72 -7 135 -8z m768 6 c36 -13 0
-20 -103 -21 -99 -1 -115 1 -115 15 0 13 14 15 103 13 56 -1 108 -4 115 -7z
m1159 -4 c9 -7 13 -7 13 1 0 8 51 11 170 11 144 0 170 -2 170 -15 0 -13 -89
-15 -745 -15 -661 0 -745 2 -745 15 0 14 65 15 562 15 385 -1 566 -4 575 -12z
m-1255 -268 c23 -65 24 -70 7 -70 -10 0 -21 9 -24 20 -4 11 -15 20 -27 20 -11
0 -22 -8 -25 -20 -3 -12 -14 -20 -25 -20 -12 0 -18 5 -16 13 3 6 13 35 22 64
13 40 21 50 33 46 11 -4 14 -2 9 5 -4 7 -1 12 7 12 9 0 24 -28 39 -70z m158
55 c13 -16 11 -17 -34 -19 -36 -1 -56 -28 -40 -53 8 -12 22 -17 42 -16 34 3
53 -14 31 -28 -42 -26 -119 13 -119 61 0 51 89 92 120 55z m140 0 c0 -8 -9
-15 -20 -15 -18 0 -20 -7 -20 -55 0 -47 -3 -55 -19 -55 -10 0 -19 6 -18 13 0
6 -1 31 -1 55 -2 35 -5 42 -22 42 -11 0 -20 7 -20 15 0 12 13 15 60 15 47 0
60 -3 60 -15z m50 -55 c0 -63 -2 -70 -20 -70 -18 0 -20 7 -20 70 0 63 2 70 20
70 18 0 20 -7 20 -70z m69 28 c13 -29 21 -38 25 -28 3 8 10 27 15 43 11 27 25
35 35 18 3 -5 -4 -36 -16 -70 -17 -48 -26 -61 -42 -61 -17 0 -27 15 -47 70
-25 67 -26 70 -7 70 13 0 25 -14 37 -42z m191 27 c0 -9 -9 -15 -25 -15 -14 0
-25 -4 -25 -10 0 -5 11 -10 25 -10 16 0 25 -6 25 -15 0 -9 -9 -15 -25 -15 -16
0 -25 -6 -25 -15 0 -9 9 -15 25 -15 16 0 25 -6 25 -15 0 -11 -12 -15 -45 -15
l-45 0 0 70 0 70 45 0 c33 0 45 -4 45 -15z m50 -10 c0 -20 5 -25 25 -25 20 0
25 5 25 25 0 16 6 25 15 25 12 0 15 -14 15 -70 0 -56 -3 -70 -15 -70 -10 0
-15 10 -15 30 0 25 -4 30 -25 30 -21 0 -25 -5 -25 -30 0 -20 -5 -30 -15 -30
-12 0 -15 14 -15 70 0 56 3 70 15 70 9 0 15 -9 15 -25z m208 -33 c12 -32 22
-63 22 -70 0 -20 -32 -13 -37 8 -3 11 -14 20 -25 20 -11 0 -22 -9 -25 -20 -3
-11 -14 -20 -24 -20 -23 0 -23 -5 1 64 24 71 27 76 48 76 12 0 24 -19 40 -58z
m88 47 c4 -7 7 -25 6 -40 -1 -36 13 -45 44 -28 30 15 42 6 20 -16 -9 -9 -16
-23 -16 -31 0 -19 -39 -18 -47 2 -4 12 -8 13 -13 3 -5 -6 -15 -9 -24 -6 -12 5
-16 21 -16 67 0 53 2 60 19 60 11 0 23 -5 27 -11z m114 -59 c0 -65 -2 -70 -21
-70 -17 0 -20 4 -15 20 20 67 21 63 -8 58 -22 -4 -26 -2 -20 11 3 9 9 24 11
34 3 10 15 17 29 17 23 0 24 -3 24 -70z m89 61 c11 -7 11 -10 0 -17 -8 -5 -18
-9 -24 -9 -20 0 -16 -20 6 -25 30 -7 43 -45 23 -65 -17 -17 -51 -20 -73 -6
-22 14 -3 32 26 25 19 -5 24 -3 21 7 -2 7 -15 16 -29 19 -19 5 -24 12 -24 35
0 19 5 29 13 28 6 -2 12 2 12 7 0 12 30 13 49 1z m141 -6 c0 -8 -9 -15 -20
-15 -18 0 -20 -7 -20 -55 0 -49 -2 -55 -21 -55 -19 0 -21 5 -17 53 3 48 1 52
-19 55 -13 2 -23 10 -23 18 0 11 15 14 60 14 47 0 60 -3 60 -15z m110 0 c0
-10 -10 -15 -30 -15 -16 0 -30 -4 -30 -10 0 -5 14 -10 30 -10 20 0 30 -5 30
-15 0 -10 -10 -15 -30 -15 -20 0 -30 -5 -30 -15 0 -10 10 -15 30 -15 20 0 30
-5 30 -15 0 -11 -12 -15 -50 -15 l-49 0 0 70 1 70 49 0 c37 0 49 -4 49 -15z
m88 3 c15 -15 16 -54 2 -63 -6 -4 -4 -17 5 -36 15 -27 14 -29 -4 -29 -11 0
-25 8 -30 18 -10 16 -10 16 -11 0 0 -11 -8 -18 -20 -18 -18 0 -20 7 -20 70 l0
70 33 0 c18 0 38 -5 45 -12z m111 3 c11 -7 11 -10 0 -17 -8 -5 -20 -9 -26 -9
-22 0 -15 -20 9 -25 17 -4 24 -14 26 -37 4 -35 -20 -50 -64 -39 -34 9 -24 32
11 28 34 -4 30 20 -6 28 -27 7 -38 43 -19 66 14 16 48 18 69 5z m-874 -280
c-3 -5 3 -11 12 -14 10 -2 -181 -5 -424 -6 -391 -1 -443 0 -443 14 0 13 51 15
431 15 261 0 428 -4 424 -9z m875 -6 c0 -13 -49 -15 -412 -15 -338 1 -416 3
-431 15 -16 12 41 14 412 15 380 0 431 -1 431 -15z m-1690 -167 c0 -9 3 -9 12
0 7 7 18 12 25 12 11 0 10 -6 -2 -30 -8 -16 -15 -36 -15 -45 0 -26 -28 -16
-32 13 -3 15 -9 35 -13 45 -5 12 -3 17 9 17 9 0 16 -5 16 -12z m129 -5 c10
-17 10 -17 11 0 0 9 7 17 15 17 10 0 15 -11 15 -35 0 -19 5 -35 10 -35 6 0 10
16 10 35 0 25 4 35 16 35 12 0 14 -9 12 -42 -3 -39 -6 -43 -33 -46 -18 -2 -33
2 -41 12 -10 15 -12 15 -18 1 -7 -20 -62 -20 -70 1 -8 21 -8 59 1 67 13 14 62
7 72 -10z m167 2 c4 -8 1 -22 -5 -29 -8 -10 -9 -16 -1 -21 15 -9 12 -25 -5
-25 -8 0 -15 6 -16 13 0 10 -2 10 -6 0 -2 -7 -11 -13 -19 -13 -10 0 -14 13
-14 45 0 43 1 45 30 45 18 0 33 -6 36 -15z m94 5 c0 -5 -7 -10 -15 -10 -8 0
-15 -4 -15 -10 0 -5 7 -10 15 -10 8 0 15 -4 15 -10 0 -5 -7 -10 -15 -10 -8 0
-15 -7 -15 -16 0 -35 -25 -4 -28 34 -3 41 -2 42 27 42 17 0 31 -4 31 -10z m67
-20 c3 -17 8 -29 10 -26 3 2 4 6 2 8 -1 2 3 13 10 26 10 19 20 22 69 22 40 0
53 -3 42 -10 -8 -5 -32 -10 -52 -10 -33 0 -38 -3 -38 -24 0 -13 6 -26 13 -29
6 -2 8 -8 4 -13 -4 -4 -17 -2 -29 5 -11 7 -17 8 -13 2 3 -6 -1 -11 -9 -11 -9
0 -16 5 -16 10 0 6 -7 10 -15 10 -8 0 -15 -4 -15 -10 0 -5 -7 -10 -15 -10 -18
0 -18 2 -3 51 14 49 45 54 55 9z m242 13 c9 -15 10 -15 11 -2 0 12 12 15 50
15 28 0 50 -4 50 -10 0 -6 5 -5 12 2 7 7 18 12 25 12 11 0 10 -6 -2 -30 -8
-16 -15 -36 -15 -45 0 -8 -7 -15 -15 -15 -9 0 -15 9 -15 23 0 12 -4 28 -9 35
-11 18 -24 -13 -16 -39 4 -13 1 -19 -9 -19 -9 0 -16 6 -17 13 0 10 -2 10 -6 0
-6 -16 -33 -17 -33 -2 0 6 -16 26 -36 45 -37 34 -37 34 -11 34 14 0 31 -8 36
-17z m-118 -66 c-8 -8 -11 -5 -11 9 0 27 14 41 18 19 2 -9 -1 -22 -7 -28z m79
-5 c-15 -5 -40 17 -40 36 0 12 6 10 26 -9 14 -13 20 -25 14 -27z m-662 -64
l11 -23 0 23 c1 13 7 22 16 22 9 0 20 -10 25 -22 l9 -23 0 23 c1 21 5 22 81
22 56 0 80 -4 80 -12 0 -9 3 -9 12 0 7 7 42 12 87 12 58 0 72 -3 63 -12 -7 -7
-12 -27 -12 -45 0 -18 -4 -33 -10 -33 -5 0 -10 16 -10 35 0 24 -5 35 -15 35
-10 0 -15 -10 -15 -34 l0 -33 -115 -2 -115 -1 -1 32 -1 33 -9 -32 c-10 -36
-32 -43 -48 -15 -10 16 -10 16 -11 0 0 -18 -25 -25 -33 -10 -2 4 -7 24 -11 45
-8 41 5 50 22 15z m462 12 c0 -5 -7 -10 -15 -10 -21 0 -19 -20 3 -20 15 -1 15
-2 -2 -15 -11 -8 -14 -15 -8 -15 7 0 12 -4 12 -10 0 -5 -11 -10 -25 -10 -23 0
-25 4 -25 45 0 43 1 45 30 45 17 0 30 -4 30 -10z"/>
<path d="M865 1447 c32 -18 16 -56 -49 -120 -91 -87 -106 -139 -66 -223 31
-64 62 -72 261 -73 141 0 171 3 199 18 42 22 70 73 70 129 0 54 -20 93 -65
127 -19 15 -37 35 -40 45 -3 11 -15 22 -26 25 -22 7 -26 47 -6 67 11 11 -13
13 -139 13 -85 0 -147 -3 -139 -8z m76 -137 c38 -21 14 -90 -31 -90 -17 0 -50
34 -50 52 0 12 38 48 51 48 6 0 19 -5 30 -10z m191 -7 c10 -9 18 -24 18 -34 0
-23 -26 -49 -50 -49 -10 0 -26 7 -34 16 -30 29 -9 84 31 84 9 0 25 -7 35 -17z
m-92 -93 c12 -8 12 -11 -3 -28 -25 -27 -22 -62 4 -62 12 0 28 8 35 18 8 10 13
12 14 5 0 -7 -9 -20 -19 -30 -10 -10 -21 -27 -23 -38 -2 -15 -11 -20 -38 -20
-29 0 -36 4 -38 23 -2 12 -12 27 -23 32 -10 6 -19 18 -19 28 1 16 1 16 11 0
15 -27 59 -24 59 3 0 12 -7 27 -17 34 -37 27 16 61 57 35z"/>
<path d="M885 1289 c-11 -16 -1 -19 13 -3 7 8 8 14 3 14 -5 0 -13 -5 -16 -11z"/>
<path d="M1066 1284 c-9 -24 -2 -26 12 -4 7 11 8 20 3 20 -5 0 -12 -7 -15 -16z"/>
<path d="M980 1085 c0 -8 5 -15 10 -15 6 0 10 7 10 15 0 8 -4 15 -10 15 -5 0
-10 -7 -10 -15z"/>
<path d="M1020 1085 c0 -8 5 -15 10 -15 6 0 10 7 10 15 0 8 -4 15 -10 15 -5 0
-10 -7 -10 -15z"/>
<path d="M3130 1254 c0 -8 5 -12 10 -9 6 4 8 11 5 16 -9 14 -15 11 -15 -7z"/>
<path d="M1666 813 c-8 -19 8 -38 23 -29 16 10 13 46 -3 46 -8 0 -17 -8 -20
-17z"/>
<path d="M1710 690 c0 -5 7 -10 15 -10 8 0 15 5 15 10 0 6 -7 10 -15 10 -8 0
-15 -4 -15 -10z"/>
<path d="M1770 689 c0 -5 5 -7 10 -4 6 3 10 8 10 11 0 2 -4 4 -10 4 -5 0 -10
-5 -10 -11z"/>
<path d="M1841 697 c2 -1 12 -9 22 -16 14 -12 17 -11 17 3 0 10 -8 16 -22 16
-12 0 -19 -1 -17 -3z"/>
<path d="M1810 684 c0 -17 18 -36 30 -32 7 2 4 10 -9 22 -12 11 -21 15 -21 10z"/>
<path d="M1720 660 c-13 -8 -12 -10 3 -10 9 0 17 5 17 10 0 12 -1 12 -20 0z"/>
</g>
</svg>
