<?xml version="1.0" encoding="utf-8"?>
<!-- Generator: Adobe Illustrator 21.0.2, SVG Export Plug-In . SVG Version: 6.00 Build 0)  -->
<svg version="1.1" id="Шар_1" xmlns="http://www.w3.org/2000/svg" xmlns:xlink="http://www.w3.org/1999/xlink" x="0px" y="0px"
	 viewBox="0 0 841.9 595.3" style="enable-background:new 0 0 841.9 595.3;" xml:space="preserve">
<g>
	<path d="M282,258.6c0.8-7.3,1.5-14.1,2.3-21.3C269.4,253,250,254,230.8,255.1c-6.5,0.4-8.5-2.6-6-8.8c3.6-8.7,7.7-17.2,11.8-25.8
		c1.7-3.6,3.3-7.2,5.5-10.4c3.2-4.6,6.9-8.7,9.7-12.2c-20.1,0.9-41.3-2-62.2-7.4c-3-0.8-5.5-3.5-8.2-5.3c1.8-2.5,3.2-5.6,5.6-7.3
		c18.9-14.2,39.3-26.1,61-35.5c2.5-1.1,6.5-0.7,9.2,0.4c11,4.6,21.8,9.8,32.6,14.8c0.8,0.4,1.5,0.9,2.4,1.2c5.2,2,8,0.3,9.2-5.1
		c0.5-2.3,1.6-5.1,3.3-6.4c3.1-2.4,3.9-5.6,4.9-9.1c3.3-11.4,7.1-22.7,10.8-34.2c-14.5-9.5-21.7-23.6-21.9-40.9
		c-0.2-14,6.2-25.7,17.2-34.3c13.8-10.8,32.9-4.3,38.9,12.9c2.7,7.7,5.5,15.3,8.4,23.3c24.5-8.5,49-12,73.9-12
		c25,0,49.4,3.5,74.1,12c2.6-7.2,5.4-14.2,7.7-21.2c2.9-9,8.2-15.9,17.4-19c10.7-3.6,22.1,1.1,30.3,11.8c18.8,24.3,6,56.2-11.6,66.4
		c-0.5,0.3-0.8,0.7-0.8,0.6c3.9,13,7.7,25.8,11.6,38.5c0.3,1.1,1.1,2.3,2,3c3.9,2.7,4.8,6.5,5.5,11c1.9,11.4,4.8,22.6,7.3,33.9
		c0.4,1.9,1.1,4.1,0.5,5.7c-1.6,4-0.8,7.6,0.3,11.4c2.7,10,5.7,19.9,8,30c1.4,6.2,1.7,12.7,2.6,19.6c4.4,0.2,9.6,1.6,9.5,7.2
		c0,4.3-2.6,8.6-4.2,13.7c6.6-4.3,13-8.4,19.5-12.6c-2.4-5.8-4.6-11.2-6.8-16.7c-2.8-7-0.4-11.5,7.1-12.4c6.6-0.8,13.2-0.9,19.8-1.3
		c0.5,0,1.1,0,1.6,0c7.1-1.1,12.9,0.2,15.1,8.9c5.4-3.9,10.3-7.3,15.1-10.8c19.6-14.4,39.1-28.9,58.6-43.4
		c4.7-3.5,10.3-4.1,15.8-3.3c2,0.3,4.6,2.1,5.3,3.8c3,7,5.6,14.2,7.7,21.5c0.5,1.7-1.3,4.9-3,6.3c-9.1,8.1-18.1,16.3-27.8,23.6
		c-17.8,13.2-36,25.7-54.8,39c1.5,3.4,3.4,7.3,5,11.4c0.8,2,2.2,5.1,1.4,6.2c-2.2,3-5.2,6.5-8.5,7.5c-7.1,2.2-14.6,3-22,4.5
		c-3.3,0.7-5.5-0.4-7.2-3.2c-1.5-2.6-3.2-5.1-5-8.1c-16.1,10.2-32.1,20.3-47.3,29.9c1.1,12.1,2.1,23.4,3.1,34.8
		c0.1,0.7,0.2,1.5,0,2.1c-3.5,10.5,1.8,15.8,10.3,21c14.1,8.6,24.7,21,34.2,34.4c16.1,22.6,18.3,46.7,8.8,72.2
		c-2.3,6.2-5.2,12.1-7.9,18.1c5.4,2.2,10.9,4.1,16.1,6.8c6.2,3.3,11.9,7.4,12.9,15.3c0.9,7.4-2.6,14.2-9.7,16.7
		c-4.6,1.7-9.7,2.8-14.6,3.1c-29.9,1.9-58.8-2.8-86.2-15.2c-6.6-3-12.8-2.1-18.7,0c-4.9,1.7-9.3,3.1-14.3,1.4
		c-2.1,9-6.6,11.3-14.9,6.9c-4.7-2.5-8.9-5.9-13.3-9c-1.2-0.9-2.5-1.7-4.1-2.8c-0.8,3.1-0.9,5.7-2,7.8c-1.4,2.6-3.1,5.3-5.4,7.1
		c-4.1,3.2-8.9,3.7-13.6,1c-4.6-2.7-4.6-7.4-4.5-11.9c0.1-3,0.7-6,1.2-9.8c-2.8-0.5-5.3-1.1-7.8-1.2c-24.5-1.9-49.1-3.5-73.6-5.6
		c-6.5-0.6-12.9-2.5-19.3-4.3c-2.3-0.6-3.9-0.4-5.9,0.8c-24.1,15.6-50.1,26.5-78.2,32.1c-17.3,3.5-34.8,3.6-52.3,1.6
		c-2.4-0.3-4.9-1-7.2-1.9c-10.7-4.3-13.7-16.2-6.4-25.1c5.2-6.3,12.7-9,20.1-11.9c1.6-0.6,3.4-1.1,5.4-1.7c-2.4-5.2-5-10.2-7-15.5
		c-8.3-21.3-10.4-42.7,0.8-63.7c11.3-21.1,27.1-38.1,47.7-50.5c3.7-2.2,5-4.6,5-8.9c0.1-7.3,1.1-14.6,1.7-21.9
		c0.2-2.3,0.4-4.6,0.5-6.8c-28.9-6.1-55.4-1.5-80.7,13.4c-9.8,5.8-16.8,14.3-25.6,20.9c-1.5,1.1-2,3.7-2.9,5.6
		c-2.8,5.4-5.4,10.8-8.3,16.2c-1.8,3.3-4.6,6.6-8.2,5.8c-2.9-0.7-5.1-4.1-8.3-6.7c-2.3,1.3-5.6,4.7-10.2,2.2
		c-4.3-2.3-5-6.2-5.1-10.9c-0.9,1.3-1.7,2.7-2.7,3.9c-2.8,3.6-7.6,5.2-11.4,3.7c-4.2-1.7-5.8-5.2-5.6-9.4c0.2-3.9,1.1-7.7,1.8-12.1
		c-1.9,0.3-3.9,1-5.6,0.7c-3-0.6-6.4-1.2-8.6-3.1c-2.6-2.2-1.2-5.7,0.2-8.4c3.4-6.6,9.3-10.2,15.9-12.8c3.5-1.3,7.1-2.7,10.8-3.1
		c12.7-1.2,22.1-7.3,30-17.3c24.2-31.1,55.9-51.6,92.9-64.7C264.9,264.9,273.4,261.8,282,258.6z M642.6,282.9l-0.1,0.2
		c0.3-0.3,0.7-0.6,1-0.9c0-0.5,0-1.1,0-1.6c-1-1.3-2.1-2.7-3.1-4c-2.7-3.3-5.4-6.6-8.1-9.9c0,0,0.1,0,0.1,0
		c-0.7,0.1-1.4,0.2-2.2,0.3c0.5,1.1,1,2,1.5,2.9l-0.1-0.1c1.9,3.3,3.7,6.6,5.6,9.9c0.9,1.5,1.8,3,2.7,4.4c1,1,2,2,3,3
		c0.5,0,0.9,0.1,1.4,0.1c-0.6-0.9-1.1-1.7-1.7-2.6C642.6,284.1,642.6,283.5,642.6,282.9z M341.6,82c5.6-2.4,5.8-3.6,2.9-8.6
		c-2.5-4.3-4.4-9-6.6-13.5c-0.8-2.9-1.7-5.8-2.5-8.7c-2.1-7.1-7.2-9-13.4-4.7c-5,3.4-7.8,8.2-8.3,14.3c-1,12.7,6.6,23.7,20.7,29.6
		C336.8,87.6,339.2,84.8,341.6,82z M551.6,46.5c-5.9-3.1-8.2-1.9-10.1,4.1c-2.8,8.6-3.8,18-11.4,24.5c-2,1.7-1.1,3.9,1.1,5.3
		c2.1,1.3,4.1,2.8,6.1,4.2c1.4,2,2.8,4,4.6,6.6c4.1-3,8-5.4,11.4-8.4c6.2-5.4,9.5-12.4,9.2-20.7C562.4,54.1,558,47.9,551.6,46.5z
		 M330.7,401.3c81.5,8.3,152.5-10.4,208.4-72.4c-24.9,12.6-51.2,17.2-60.1,16.6c1.5-0.5,2.4-1.1,3.5-1.2
		c17.4-2.9,33.9-8.5,49.6-16.4c18.7-9.5,34.6-22.3,44.9-41c4.7-8.5,9-17.4,9.2-27.1c0.3-19.5-7.9-37.3-12.1-56.2
		c-15.5,13.2-33.7,19-52.3,23.6c-18.5,4.5-37.3,8-55.7,11.8c-3.5,12.7-14.7,15.2-25.9,18.8c0,3.4-0.2,6.9,0.1,10.5
		c0.1,1.3,1,3.2,2.1,3.8c9.1,4.5,18.5,7.8,28.8,6.4c4.4-0.6,8.3-2.5,10.2-6.9c1.7-3.9,2.2-7.9-1.4-11.5c3.5-1.9,6.5-1.9,9,0.9
		c0.7,0.8,1,2,1.8,3.7c-1.8-0.3-2.8-0.4-3.8-0.6c-0.7,10.6-4.7,17-16.7,18.3c-4.7,0.5-9.5,0.1-14.4,0.1c-1.4,5.5-2.9,11.6-4.7,17.6
		c-0.5,1.6-1.6,3.7-2.9,4.2c-5.5,2.1-11.2,2.1-16.8-0.1c-4.2-1.6-4.4-5.8-5.3-9.3c-1.2-4.6-2.2-9.2-3.3-13.8
		c-24.7,5.3-32.4-3.1-33.3-16.9c-1,0.1-2.1,0.1-3.3,0.2c2.5-6.1,4.9-6.9,9.8-4.1c-0.7,1.9-1.8,3.6-1.9,5.4
		c-0.4,7.2,4,12.5,11.5,12.8c5.8,0.2,11.9-0.2,17.4-2c15.4-5.1,13.4-2.4,12.5-18.9c-10.7-3.3-22-6-25.1-19
		c-7.8-1.2-15.4-2.2-22.9-3.7c-30.6-6.1-61.5-11.3-87.3-30.5c-2.6,8.9-5.1,17.8-7.8,26.7c-9.4,31.4-1,57.8,22.4,79.9
		c11.5,10.8,25,18.4,39.8,23.7c9.9,3.5,20,6.4,30.1,9.6c-15-1.9-29.1-6.8-43.5-12.6C335.7,354.6,331.8,377.3,330.7,401.3z
		 M491.3,388c-50,27.8-103.9,34.4-160.8,29.2c0.3,6.9,0.4,14,1,21.1c2.2,25.9,11.1,48.7,32.3,65.1c8.2,6.3,16.7,12.6,27.4,13.6
		c12.4,1.2,25,1.6,37.5,2.4c4.9,0.3,9.5,0.3,12.6-4.6c0.6-1,2-1.4,3.1-2.1c5.9-3.7,11.8-7.4,17.8-10.9c2.9-1.7,4.4-3.8,5.1-7
		c1.7-7.7,3.8-15.2,5.2-22.9c3-16.1,5.2-32.5,8.7-48.5C483.8,411.5,487.9,399.9,491.3,388z M246.1,545.9c0.5,0.4,1,0.9,1.6,1.3
		c28.4,0.3,54.8-7.3,80.2-19.4c-7.2-0.8-14.4-1.2-21.4-2.3c-17.3-2.7-34.5-5.8-51.7-8.7c-12.6-2.1-23.6,2.2-33.8,9.1
		c-4.4,3-6.1,7.2-4.5,13.3c2.4-5.6,5.6-9.7,10.8-12.4c-2.4,4.5-4.7,8.5-6.6,12.7c-1.1,2.4-0.6,4.8,2.5,5.3
		c6.4,1.1,12.9,1.9,19.6,2.9c0.8-9.1,4.5-15,10.7-19.5C250.9,534.3,248.5,540.1,246.1,545.9z M554.6,531.6
		c23.8,10.1,47.4,16,74,15.5c-2.6-6.7-4.8-12.3-7.2-18.5c6.1,5,9.4,10.8,10.1,18.3c8,0.4,15.4-0.3,22.5-3.3
		c0.6-6.9-3.9-11.3-7.1-16.3c0.4-0.3,0.9-0.6,1.3-0.9c3.3,3.9,6.6,7.7,10,11.7c1.6-6.4-1.6-10.4-6.2-13.3
		c-10.1-6.3-20.8-10.2-33-7.7c-4.2,0.8-8.5,1-12.8,1.5C588.9,520.8,572.1,525.4,554.6,531.6z M471.2,501.4
		c-9.9,6.1-19.2,11.8-28.5,17.6c0.1,0.4,0.2,0.9,0.4,1.3c4.5,0.3,9.1,0.5,13.6,1.1c3.5,0.4,7,1,10.4,2c3.2,0.9,4.1,3.2,3.4,6.6
		c-0.8,3.8-0.7,7.8-0.9,11.7c-0.1,2.8,1.5,3.6,4.1,3.7c4.1,0.1,6.5-2,7.4-5.6c0.9-3.7,1.2-7.6,1.7-11.6c5-0.1,9.5,0.6,13.5,4
		c3.4,2.9,7.1,5.4,10.9,7.7c1.9,1.2,4.3,1.6,6.5,2.3c0.4-0.4,0.7-0.8,1.1-1.2c-1.4-4.6-2.7-9.2-4.3-14.5c7.1,3.6,12.7,10.3,21.5,5.8
		c-6.9-12.5-19-17.9-30-25.5c-0.5,1-1.2,2.1-1.9,3.3c-2-2.2-3.4-3.8-5-5.7c-0.8,1.4-1.4,2.5-2,3.5c-2.2-0.5-2.3-5.1-5.4-1.7
		c-0.8-1.8-1.4-3.2-2-4.8c-2.7,1.9-5.3,3.7-8.2,5.7c-0.5-1.8-0.8-3-1.2-4.3c-1.1,0.6-2.1,1.2-3.1,1.7
		C472.6,503.4,471.9,502.5,471.2,501.4z M159.6,346.4c-3,1.6-6.7,3.9-10.6,5.5c-3.9,1.5-8.3,2.1-12.3,3.4c-6.2,2-12.5,4-18.5,6.6
		c-3.5,1.5-5.7,4.7-6.9,10c4.6-1.1,8.5-2.1,12.3-2.9c3.6-0.8,7.4-2.3,10.9-2c7.1,0.7,14.1,2.1,21.1,3.7c5.8,1.3,7.9,4.8,7.4,10.6
		c-0.4,3.6-1.1,7.1-1.4,10.6c-0.2,2.6,0.2,5.2,0.3,7.8c0.6,0.1,1.2,0.2,1.8,0.3c2.6-4.8,5.5-9.5,7.6-14.5
		c2.8-6.7,6.3-12.7,12.5-16.9c2.7-1.8,4.7-4.8,6.8-7.5c0.8-1,0.9-2.4,1.7-4.5c-3.9,1.3-6.8,2.3-10.3,3.4c0.3-2.2,0.4-3.7,0.6-5.2
		c-0.8,0.4-1.7,0.8-2.7,1.3c-0.1-2.3-0.2-4.2-0.4-6.6c-3.2,0.3-6.1,0.6-9.7,0.9c1.4-2.1,2.3-3.5,3.3-5
		C168.9,344.6,164.7,349.5,159.6,346.4z M592.2,397.5c-0.2,0.4-0.5,0.7-0.7,1.1c11.1,8.7,20,19.3,26.3,32c9,18.4,12.6,37.5,7.4,57.7
		c-0.5,1.9-0.9,3.8-1,5.8c-0.2,2.9-0.2,6.1,3.4,7c3.7,1,5.8-0.8,7.5-4.3c2.9-6.1,3.8-12.5,4-19.1c0.2-11.5-0.3-22.8-4.9-33.7
		c-8.1-19.4-21.9-33.9-39.2-45.4C594.1,398.1,593.1,397.9,592.2,397.5z M508.5,478.9c2.1,0.3,2.8,0.6,3.1,0.4
		c7.1-4.4,14.9-8.1,21-13.6c6.8-6.2,12.4-13.8,17.9-21.2c9.4-12.9,15.7-27.4,19.9-42.8c2.4-8.9,4.3-18.1,6.2-27.1
		c0.8-3.8,1.1-7.8,1.4-11.7c0.2-3.9,0-7.8,0-12.4c-0.6,1.1-0.8,1.4-0.9,1.7c-3.1,28.8-13.7,54.9-29.3,79.1
		c-9.5,14.6-21,27.6-32.9,40.2C512.9,473.5,511.1,475.8,508.5,478.9z M262.5,410.4c-0.4-0.3-0.8-0.5-1.1-0.8
		c-4.3,4.5-8.5,9-12.8,13.5c-5.6,5.7-9.4,12-11.7,19.9c-3.8,13.1-2.7,25.9-0.3,38.8c0.8,4.2,3,8.4,5.4,12.1c1,1.6,4.5,2.6,6.5,2.2
		c1.3-0.3,2.6-3.5,2.7-5.5c0.2-3-0.1-6.2-1.2-8.9c-3.5-8.4-3.6-17.2-3-25.9c0.9-15.4,4.3-30.1,14.3-42.5
		C261.8,412.3,262.1,411.3,262.5,410.4z M170.9,337.6c0.5,0.5,1.1,1.1,1.6,1.6c9.4-7.6,18.6-15.4,28.2-22.7
		c9.5-7.2,19.2-14.4,29.3-20.7c10.1-6.4,20.9-11.7,31.4-17.4c-0.2-0.6-0.4-1.2-0.6-1.8c-4.8,0.8-9.9,0.7-14.2,2.6
		c-10.6,4.7-21.3,9.5-30.8,15.9c-8.7,5.8-15.9,13.8-23.7,20.8c-3.2,2.9-6.5,5.7-9.4,8.8C178.5,328.7,174.8,333.2,170.9,337.6z
		 M438.6,233.1c-6.1,0.9-12.2,1.5-18,2.7c-5.9,1.2-6.9,4.4-2.6,8.4c12.9,11.8,28.5,11.6,41.2-0.3c4-3.8,3.2-6.7-2.1-7.9
		C451,234.7,444.8,234.1,438.6,233.1z M439.2,295.4c-0.6,0-1.2,0.1-1.9,0.1c0-6.5,0-13.1,0-20.2c-4,1.7-6.8,2.9-10.1,4.4
		c0.9,4.4,1.6,8.7,2.6,13c1.9,8.6,4.7,10.3,13.6,8.9c2.9-0.4,4.5-1.5,5.1-4.4c1.1-5.5,2.4-11,3.7-16.7c-4.1-1.7-7.8-3.1-12-4.8
		C439.7,282.6,439.5,289,439.2,295.4z M635.3,264.6c-0.7-5.4,2-8.3,6.1-10.6c2-1.1,3.9-2.5,5.6-4.1c0.8-0.8,1.6-2.5,1.4-3.5
		c-0.9-4.5-3.8-6.3-8.4-5.9c-5.7,0.4-11.4,0.7-17,1c-1.5,0.1-2.9,0.3-4.9,0.6C622,251.6,628.2,258.2,635.3,264.6z M340.9,96.6
		c19.6-18.7,44.2-24.2,70.2-25.9c-0.8-3.8-1.4-6.7-2-9.8c-1.8,1.3-2.7,2.3-3.8,2.6c-2.2,0.6-4.6,0.8-6.9,1.2
		c-14.5,2.7-28.7,6.4-41.1,14.7C350.6,83.9,343.9,88.4,340.9,96.6z M571.8,429.6c-0.8-0.3-1.5-0.6-2.3-0.9
		c-3.6,5.5-7.1,11-10.9,16.4c-4.1,5.9-8.4,11.6-12.6,17.4c-1.9,2.6-2.4,5.6-0.1,7.8c2.5,2.3,4.9,0.5,7-1.5c6.5-6.2,11.1-13.6,14-22
		C568.9,441.1,570.2,435.3,571.8,429.6z M143.8,373.8c-2.2-0.2-4.3-0.5-6.4-0.7c-8.6-0.8-10.6,0.5-13.3,8.7c-0.6,1.8-0.9,3.8-1,5.8
		c-0.2,2.9-0.1,6.1,3.5,7c3.2,0.8,5.4-1.2,7-3.9C136.9,385.1,140.2,379.7,143.8,373.8z M356.3,198.8c1.7,11.4,21,17.5,29.1,12.2
		C379,202.5,367.9,196.2,356.3,198.8z M342.1,40c0.6,8.3,1,16.2,1.8,24.1c0.2,2.2,1.5,4.3,2.6,6.2c2,3.7,5.4,3.6,8.6,2
		c3.2-1.6,2.9-4.2,1.4-7c-1.1-2.2-1.2-5.3-2.9-6.8c-5.7-4.8-6.5-12.1-10.2-17.9C343.2,40.5,342.8,40.4,342.1,40z M518.2,197.7
		c-11.7,0.4-21,5.7-29.6,13.6C500.3,215.9,517.6,208.8,518.2,197.7z M534.7,34.6c-0.5-0.3-1.1-0.5-1.6-0.8c-2,2.8-4.8,5.3-6,8.4
		c-3.3,8.8-5.9,17.8-8.5,26.9c-0.3,1.1,1.2,3.6,2.3,3.9c1.2,0.4,3.8-0.7,4.2-1.8c1.5-3.7,2.9-7.7,3.4-11.7c1.1-7.9,1.1-16.1,6.1-23
		C534.9,36.1,534.7,35.3,534.7,34.6z M156.7,382.1c0-2.4,0.9-4.8-2.6-6c-3.5-1.2-5.8-0.2-7,2.8c-1.7,4.2-3.1,8.6-4,13.1
		c-0.3,1.7,1,4.9,2.3,5.3c1.7,0.5,4.6-0.4,6.1-1.7C155.6,392.2,156.7,387.3,156.7,382.1z M502.2,76.9c-0.8-1.1-1-1.7-1.3-1.9
		c-8.2-3.1-16.3-6.3-24.5-9c-4-1.3-5.3,1.3-5.5,5.3C481.2,73.2,491.4,75,502.2,76.9z"/>
	<path d="M537.4,84.6c-2-1.4-4.1-2.8-6.1-4.2c-2.2-1.4-3.1-3.6-1.1-5.3c7.6-6.5,8.6-15.9,11.4-24.5c1.9-6,4.2-7.2,10.1-4.1
		c3.8,1.8,4.4,5.2,3.4,8.5c-1.9,6.4-3.6,13-6.7,18.9C546.1,78.3,542.8,82.8,537.4,84.6z"/>
	<path d="M341.6,82c-5.2-0.7-9.5-2.6-12.8-7.2c-3.7-5.2-5.2-10.9-5.3-17c0-2.1,1.3-4.1,2-6.2c0.6-1.8,1-3.6,1.5-5.5
		c4.7-0.4,6.2,1,7.8,6.3c0.8,2.6,2.2,5,3.3,7.5c2.2,4.5,4.1,9.2,6.6,13.5C347.4,78.4,347.2,79.6,341.6,82z"/>
	<path d="M642.9,287.2c-1-1-2-2-3-3c-0.5-1.5-1.1-2.9-1.6-4.4c0,0-0.1,0.1-0.1,0.1c0.4-0.4,0.8-0.8,1.2-1.2l-0.1,0.1
		c1.4,0.6,2.8,1.2,4.2,1.8c0,0.5,0,1.1,0,1.6c-0.3,0.3-0.7,0.6-1,0.9l0.1-0.2c0,0.6,0,1.2,0,1.8c0.6,0.9,1.1,1.7,1.7,2.6
		C643.8,287.3,643.4,287.3,642.9,287.2z"/>
	<polygon points="632.3,266.7 632.3,267 632.4,266.7 	"/>
	<path d="M631.7,270c3.2-0.9,3,1.4,3.3,3.4l0.1-0.1C633.9,272.1,632.7,271,631.7,270L631.7,270z"/>
	<path d="M638.3,279.8c-0.4,0-0.8,0.1-1.2,0.1c0.8-0.8,1.5-1.5,2.3-2.3c0,0.4-0.1,0.8-0.1,1.2l0.1-0.1c-0.4,0.4-0.8,0.8-1.2,1.2
		L638.3,279.8z"/>
	<path d="M636.1,274.5c0.2,0.2,0.4,0.5,0.6,0.7C636.5,274.9,636.4,274.7,636.1,274.5C636.2,274.4,636.1,274.5,636.1,274.5z"/>
	<path d="M640.5,276.5c-0.4,0.4-0.8,0.8-1.2,1.2c0.1-0.4,0.1-0.8,0.2-1.2l-0.1,0.1C639.8,276.6,640.1,276.6,640.5,276.5z"/>
	<polygon points="639.5,276.5 639.2,276.5 639.4,276.6 	"/>
	<path d="M636.2,274.4c-0.4-0.4-0.8-0.8-1.2-1.2c0,0-0.1,0.1-0.1,0.1C635.3,273.7,635.7,274.1,636.2,274.4
		C636.1,274.5,636.2,274.4,636.2,274.4z"/>
</g>
</svg>
