<?xml version="1.0" encoding="utf-8"?>
<!-- Generator: Adobe Illustrator 21.0.2, SVG Export Plug-In . SVG Version: 6.00 Build 0)  -->
<svg version="1.1" id="Шар_1" xmlns="http://www.w3.org/2000/svg" xmlns:xlink="http://www.w3.org/1999/xlink" x="0px" y="0px"
	 viewBox="0 0 841.9 595.3" style="enable-background:new 0 0 841.9 595.3;" xml:space="preserve">
<style type="text/css">
	.st0{fill:#FFFFFF;}
</style>
<path class="st0" d="M771,221.7c-2.1-7.4-4.8-15-8.4-23.4c-2.9-6.7-10.1-12.2-17.6-13.2c-10.5-1.4-19.7,0.7-27.2,6.2
	c-9.7,7.2-19.4,14.3-29.1,21.5c-9.8,7.3-19.7,14.6-29.5,21.8c-1,0.7-2,1.5-3.1,2.2c-5.2-3-11.8-4.2-19.2-3.3c-0.4,0-0.8,0-1.3,0
	c-1.9,0.1-3.9,0.2-5.8,0.3c-4.8,0.2-9.8,0.5-14.9,1.1c-5.5,0.7-9.7,2.5-12.7,4.6c-1.3-5.2-2.8-10.3-4.2-15.3
	c-0.6-2.2-1.3-4.5-1.9-6.7c-0.1-0.4-0.4-1.5-0.6-2.2c2-5.6,0.8-10.7,0.2-13.4c-0.1-0.2-0.1-0.4-0.1-0.6c-0.8-3.8-1.7-7.6-2.5-11.2
	c-1.7-7.6-3.4-14.8-4.6-22c-0.8-4.5-2.1-12.3-8.8-18.6c-2.6-8.4-5.1-16.8-7.7-25.5c8.9-8.6,15.5-20.7,18.1-33.8
	c3.4-17.4-0.6-34.7-11.3-48.6c-12.5-16.2-30.7-22.7-47.6-17.1c-13.3,4.4-22.5,14.2-27.3,28.9c-0.7,2.3-1.5,4.5-2.3,6.8
	c-20.4-5.6-41.7-8.3-64.5-8.3c0,0,0,0-0.1,0c-22.8,0-44,2.7-64.4,8.3c-1.1-3.1-2.2-6.2-3.3-9.2c-4.7-13.2-15-23.2-27.8-27
	c-12.3-3.6-25.2-1-35.5,7C291,43,282.7,59.6,282.9,77.9c0.2,18.7,6.8,34.4,19.3,46.2c-2.6,7.9-5.2,16.1-7.6,24.3l-0.2,0.8
	c-0.1,0.4-0.3,0.9-0.4,1.3c-1.6,1.4-2.9,3-3.9,4.6c-0.7-0.3-1.4-0.7-2.1-1c-8-3.7-16.3-7.6-24.7-11.1c-5.5-2.3-14-3.6-21.4-0.4
	c-22.6,9.8-44.2,22.4-64.1,37.3c-3.9,2.9-6.2,6.5-7.7,8.9c-0.4,0.6-0.8,1.2-1,1.5c-2.6,3.4-3.6,7.8-2.9,12s3.2,8,6.7,10.3
	c0.3,0.2,0.9,0.7,1.5,1.2c2.5,1.9,6.2,4.9,11.4,6.2c12.8,3.4,25.3,5.7,37.4,7c0,0.1-0.1,0.2-0.1,0.3l-0.5,1.1
	c-0.8,1.7-1.6,3.4-2.4,5.1c-3.3,6.9-6.7,14.1-9.7,21.5c-4.5,11.1-1,18.5,1.4,22c1.2,1.6,3.1,3.7,6,5.4
	c-26.6,14.1-48.9,32.6-66.6,55.3c-5.6,7.2-11.4,10.6-19.2,11.4c-5.8,0.6-10.8,2.5-14.9,4c-4.3,1.6-17.3,6.7-24.2,20.3
	c-7.9,15.7,0.7,24.9,3.5,27.3c2.2,1.9,4.6,3.2,6.9,4.2c0.2,10.2,6,18.7,15.4,22.5c4.8,1.9,10,2.2,14.9,0.9c0.8,0.6,1.7,1.1,2.6,1.6
	c4.7,2.5,9.6,3.3,14.5,2.4c2.1,1.5,4.7,2.9,7.9,3.6c7.8,1.8,18.6-0.9,25.4-13.6c2.2-4.1,4.3-8.2,6.3-12.2c0.7-1.4,1.5-2.9,2.2-4.3
	c0.4-0.8,0.7-1.6,1-2.3c3.1-2.5,5.9-5.1,8.6-7.5c4.4-4,8.5-7.8,12.9-10.4c17.9-10.6,36.4-15.1,55.9-13.6c-0.4,4-0.8,8.2-1,12.5
	c-21.5,13.5-38.7,32-50.9,55c-12.3,23-12.8,48.1-1.6,76.7c0.1,0.4,0.3,0.8,0.4,1.1c-5.7,2.7-11.5,6.4-16.4,12.3
	c-6.7,8.1-9.1,18.3-6.7,28c2.5,9.7,9.5,17.6,19.2,21.5c3.8,1.5,7.6,2.5,11.3,2.9c20.7,2.3,39.4,1.7,57.1-1.8
	c28.1-5.6,55.2-16.5,80.4-32.3c5.6,1.6,11.9,3.2,18.6,3.8c16.6,1.4,33.4,2.7,49.7,3.8c5.5,0.4,10.9,0.8,16.4,1.2
	c0.3,6.2,2.2,15.7,12.2,21.5c10.1,5.8,22,5,31.1-2.3c1.4-1.1,2.7-2.4,4-3.8c1.2,0.8,2.5,1.5,3.8,2.2c8.6,4.5,16.5,5.2,23.5,2
	c3.3-1.5,6.1-3.8,8.3-6.7c3.9-0.6,7.3-1.8,9.8-2.7c4.3-1.5,5.8-1.1,7.1-0.5c25,11.3,51.9,17,80.2,17c4.4,0,8.9-0.1,13.4-0.4
	c6.1-0.4,12.7-1.8,18.9-4c13.8-4.9,21.8-18.3,19.9-33.3c-2.2-17.1-16-24.4-21.1-27.1c-0.8-0.4-1.7-0.9-2.5-1.3
	c0.6-1.4,1.2-2.9,1.7-4.4c11.7-31.3,8.1-60.5-10.7-86.7c-8.8-12.3-21.2-27.9-38.8-38.6c-2-1.2-3.1-2-3.7-2.6c0-0.1,0-0.1,0.1-0.2
	c1.2-3.7,0.9-6.9,0.8-8.3l0-0.1c-0.7-8.3-1.5-16.7-2.2-25.3l26.5-16.8c5.1,4.9,12.1,6.9,19.7,5.4c2.2-0.4,4.4-0.8,6.8-1.2
	c5.4-0.9,11-1.9,16.8-3.7c7.7-2.4,12.8-8.3,16.4-13.1c6-8.1,2.4-16.9,0.8-20.7l-0.2-0.6c0-0.1-0.1-0.2-0.1-0.2
	c2-1.4,4.1-2.9,6.1-4.3c13.3-9.3,25.9-18.2,38.6-27.6c8.9-6.6,17-13.9,24.9-20.9c1.3-1.2,2.6-2.4,4-3.5
	C767.5,240.2,773.7,231.4,771,221.7z"/>
<g>
	<path d="M756,225.9c-2.1-7.3-4.7-14.5-7.7-21.5c-0.8-1.8-3.4-3.6-5.3-3.8c-5.5-0.8-11.1-0.2-15.8,3.3
		c-19.6,14.4-39.1,28.9-58.6,43.4c-4.8,3.5-9.7,7-15.1,10.8c-2.2-8.6-8.1-9.9-15.1-8.9c-0.5,0.1-1.1,0-1.6,0
		c-6.6,0.4-13.2,0.5-19.8,1.3c-7.6,0.9-9.9,5.4-7.1,12.4c2.2,5.5,4.4,10.9,6.8,16.7c-6.5,4.2-12.9,8.3-19.5,12.6
		c1.7-5,4.2-9.4,4.2-13.7c0-5.6-5.1-7-9.5-7.2c-0.9-6.9-1.2-13.3-2.6-19.6c-2.3-10.1-5.2-20-8-30c-1-3.8-1.9-7.4-0.3-11.4
		c0.6-1.6-0.1-3.8-0.5-5.7c-2.4-11.3-5.3-22.5-7.3-33.9c-0.8-4.5-1.6-8.3-5.5-11c-0.9-0.6-1.7-1.9-2-3c-3.9-12.7-7.7-25.5-11.6-38.5
		c0,0,0.3-0.4,0.8-0.6c17.6-10.3,30.4-42.1,11.6-66.4c-8.2-10.7-19.6-15.4-30.3-11.8c-9.2,3.1-14.4,9.9-17.4,19
		c-2.3,7.1-5,14-7.7,21.2c-24.6-8.5-49.1-12-74.1-12c-24.9,0-49.4,3.5-73.9,12c-2.9-8-5.7-15.6-8.4-23.3
		c-6.1-17.2-25.1-23.7-38.9-12.9c-11,8.6-17.3,20.2-17.2,34.3c0.2,17.3,7.3,31.4,21.9,40.9c-3.7,11.5-7.5,22.8-10.8,34.2
		c-1,3.5-1.7,6.6-4.9,9.1c-1.7,1.4-2.8,4.1-3.3,6.4c-1.2,5.4-4,7.1-9.2,5.1c-0.8-0.3-1.6-0.9-2.4-1.2c-10.9-5-21.6-10.2-32.6-14.8
		c-2.7-1.1-6.6-1.5-9.2-0.4c-21.7,9.4-42,21.3-61,35.5c-2.4,1.8-3.8,4.9-5.6,7.3c2.7,1.8,5.2,4.5,8.2,5.3
		c20.9,5.5,42.1,8.3,62.2,7.4c-2.8,3.5-6.5,7.6-9.7,12.2c-2.2,3.2-3.9,6.8-5.5,10.4c-4,8.6-8.2,17.1-11.8,25.8
		c-2.5,6.2-0.5,9.2,6,8.8c19.2-1.2,38.6-2.1,53.5-17.8c-0.8,7.2-1.5,14-2.3,21.3c-8.7,3.1-17.2,6.3-25.7,9.3
		c-36.9,13-68.6,33.6-92.9,64.7c-7.8,10.1-17.3,16.1-30,17.3c-3.7,0.4-7.3,1.7-10.8,3.1c-6.6,2.5-12.6,6.1-15.9,12.8
		c-1.4,2.8-2.7,6.2-0.2,8.4c2.2,1.9,5.6,2.5,8.6,3.1c1.7,0.4,3.7-0.4,5.6-0.7c-0.7,4.4-1.6,8.3-1.8,12.1c-0.2,4.2,1.4,7.7,5.6,9.4
		c3.8,1.5,8.6-0.1,11.4-3.7c1-1.3,1.8-2.6,2.7-3.9c0.1,4.7,0.8,8.6,5.1,10.9c4.6,2.5,7.9-0.8,10.2-2.2c3.1,2.7,5.4,6.1,8.3,6.7
		c3.6,0.8,6.5-2.5,8.2-5.8c2.9-5.3,5.6-10.8,8.3-16.2c1-1.9,1.4-4.5,2.9-5.6c8.8-6.6,15.8-15.2,25.6-20.9
		c25.2-14.9,51.8-19.5,80.7-13.4c-0.2,2.2-0.3,4.5-0.5,6.8c-0.6,7.3-1.6,14.6-1.7,21.9c-0.1,4.3-1.3,6.7-5,8.9
		c-20.6,12.4-36.4,29.4-47.7,50.5c-11.2,21-9.1,42.4-0.8,63.7c2,5.2,4.6,10.3,7,15.5c-2,0.6-3.8,1-5.4,1.7
		c-7.3,2.9-14.8,5.6-20.1,11.9c-7.3,8.9-4.3,20.8,6.4,25.1c2.3,0.9,4.8,1.6,7.2,1.9c17.5,2,35,1.8,52.3-1.6
		c28.2-5.6,54.2-16.6,78.2-32.1c2-1.3,3.5-1.5,5.9-0.8c6.4,1.7,12.8,3.7,19.3,4.3c24.5,2.1,49.1,3.7,73.6,5.6
		c2.5,0.2,5.1,0.8,7.8,1.2c-0.5,3.8-1.1,6.8-1.2,9.8c-0.1,4.5-0.1,9.2,4.5,11.9c4.6,2.7,9.5,2.2,13.6-1c2.3-1.8,4-4.5,5.4-7.1
		c1.1-2.1,1.3-4.7,2-7.8c1.6,1.1,2.8,1.9,4.1,2.8c4.4,3,8.6,6.5,13.3,9c8.3,4.4,12.8,2.1,14.9-6.9c5,1.7,9.4,0.3,14.3-1.4
		c5.9-2.1,12.1-3,18.7,0c27.4,12.4,56.3,17.1,86.2,15.2c4.9-0.3,9.9-1.4,14.6-3.1c7-2.5,10.6-9.3,9.7-16.7c-1-7.9-6.7-12-12.9-15.3
		c-5.1-2.7-10.7-4.5-16.1-6.8c2.7-6.1,5.6-12,7.9-18.1c9.5-25.5,7.4-49.6-8.8-72.2c-9.6-13.4-20.2-25.8-34.2-34.4
		c-8.5-5.2-13.8-10.5-10.3-21c0.2-0.6,0.1-1.4,0-2.1c-1-11.4-2-22.7-3.1-34.8c15.2-9.6,31.1-19.7,47.3-29.9c1.8,3,3.4,5.5,5,8.1
		c1.7,2.8,3.9,3.9,7.2,3.2c7.3-1.5,14.9-2.2,22-4.5c3.4-1.1,6.3-4.5,8.5-7.5c0.8-1.1-0.6-4.2-1.4-6.2c-1.6-4.1-3.5-8-5-11.4
		c18.8-13.3,37.1-25.8,54.8-39c9.7-7.2,18.7-15.5,27.8-23.6C754.7,230.7,756.5,227.6,756,225.9z M133.6,405.2
		c-1.6,2.6-3.7,4.7-7,3.9c-3.5-0.9-3.7-4-3.5-7c0.1-1.9,0.4-3.9,1-5.8c2.6-8.2,4.7-9.5,13.3-8.7c2.1,0.2,4.2,0.5,6.4,0.7
		C140.2,394.3,136.9,399.7,133.6,405.2z M156.7,396.7c0,5.2-1.1,10.1-5.2,13.5c-1.5,1.3-4.4,2.2-6.1,1.7c-1.3-0.4-2.6-3.6-2.3-5.3
		c0.8-4.5,2.3-8.9,4-13.1c1.2-3,3.5-4,7-2.8C157.6,391.9,156.8,394.3,156.7,396.7z M190.7,375.8c-2.1,2.6-4.1,5.6-6.8,7.5
		c-6.2,4.2-9.7,10.2-12.5,16.9c-2.1,5-5.1,9.7-7.6,14.5c-0.6-0.1-1.2-0.2-1.8-0.3c-0.1-2.6-0.5-5.2-0.3-7.8c0.2-3.6,1-7.1,1.4-10.6
		c0.6-5.8-1.6-9.3-7.4-10.6c-6.9-1.6-14-3.1-21.1-3.7c-3.6-0.3-7.3,1.2-10.9,2c-3.9,0.8-7.7,1.8-12.3,2.9c1.2-5.3,3.4-8.5,6.9-10
		c6-2.6,12.3-4.6,18.5-6.6c4-1.3,8.4-1.8,12.3-3.4c4-1.5,7.6-3.9,10.6-5.5c5.1,3.1,9.3-1.8,13.7-0.8c-1,1.5-1.9,2.9-3.3,5
		c3.6-0.3,6.4-0.6,9.7-0.9c0.1,2.3,0.2,4.2,0.4,6.6c1-0.5,1.8-0.9,2.7-1.3c-0.2,1.5-0.3,3-0.6,5.2c3.5-1.2,6.4-2.1,10.3-3.4
		C191.7,373.4,191.5,374.8,190.7,375.8z M562.7,76.7c0.3,8.4-3.1,15.3-9.2,20.7c-3.4,3-7.3,5.4-11.4,8.4c-1.8-2.6-3.2-4.6-4.6-6.6
		c5.4-1.8,8.6-6.3,10.9-10.7c3-5.9,4.8-12.5,6.7-18.9c1-3.3,0.4-6.7-3.4-8.5C558,62.5,562.4,68.7,562.7,76.7z M518.6,83.6
		c2.6-9,5.3-18.1,8.5-26.9c1.1-3.1,3.9-5.6,6-8.4c0.5,0.3,1.1,0.5,1.6,0.8c0,0.6,0.3,1.5,0,1.9c-4.9,6.9-5,15-6.1,23
		c-0.5,4-1.9,8-3.4,11.7c-0.4,1.1-3.1,2.1-4.2,1.8C519.8,87.2,518.2,84.7,518.6,83.6z M518.2,212.3c-0.6,11.1-17.9,18.2-29.6,13.6
		C497.2,218,506.4,212.7,518.2,212.3z M420.6,250.4c5.9-1.3,11.9-1.8,18-2.7c6.2,0.9,12.4,1.5,18.4,2.9c5.3,1.2,6.1,4.1,2.1,7.9
		c-12.7,12-28.3,12.1-41.2,0.3C413.6,254.9,414.7,251.7,420.6,250.4z M439.2,310c0.3-6.4,0.6-12.8,0.9-19.7c4.2,1.7,7.8,3.1,12,4.8
		c-1.3,5.7-2.6,11.2-3.7,16.7c-0.6,2.9-2.2,4-5.1,4.4c-8.8,1.3-11.7-0.4-13.6-8.9c-0.9-4.3-1.7-8.6-2.6-13c3.4-1.4,6.1-2.6,10.1-4.4
		c0,7.1,0,13.7,0,20.2C437.9,310.1,438.5,310,439.2,310z M385.4,225.6c-8.1,5.3-27.4-0.8-29.1-12.2
		C367.9,210.8,379,217.1,385.4,225.6z M313.7,75.4c0.5-6.1,3.3-10.9,8.3-14.3c6.2-4.2,11.3-2.4,13.4,4.7c0.9,2.9,1.7,5.8,2.5,8.7
		c0.5,1.1,1.1,2.3,1.6,3.4c-0.5-1.1-1-2.3-1.6-3.4c-1.1-2.5-2.5-4.9-3.3-7.5c-1.5-5.3-3.1-6.7-7.8-6.3c-0.5,1.8-0.9,3.7-1.5,5.5
		c-0.6,2.1-2,4.1-2,6.2c0.1,6.1,1.7,11.8,5.3,17c3.2,4.6,7.5,6.5,12.8,7.2c-2.4,2.8-4.8,5.7-7.1,8.4
		C320.4,99.1,312.8,88.1,313.7,75.4z M292.6,245.5c2.7-8.9,5.2-17.8,7.8-26.7c25.7,19.2,56.7,24.4,87.3,30.5
		c7.5,1.5,15.2,2.5,22.9,3.7c3.1,13.1,14.4,15.8,25.1,19c0.9,16.6,2.9,13.9-12.5,18.9c-5.4,1.8-11.6,2.2-17.4,2
		c-7.5-0.3-11.8-5.6-11.5-12.8c0.1-1.8,1.2-3.5,1.9-5.4c-4.8-2.8-7.3-2-9.8,4.1c1.3-0.1,2.3-0.1,3.3-0.2
		c0.9,13.8,8.6,22.3,33.3,16.9c1.1,4.6,2.1,9.2,3.3,13.8c0.9,3.6,1,7.7,5.3,9.3c5.6,2.2,11.3,2.2,16.8,0.1c1.3-0.5,2.4-2.6,2.9-4.2
		c1.8-6,3.2-12,4.7-17.6c4.9,0,9.7,0.4,14.4-0.1c11.9-1.3,15.9-7.7,16.7-18.3c1.1,0.2,2.1,0.3,3.8,0.6c-0.8-1.6-1-2.8-1.8-3.7
		c-2.5-2.8-5.5-2.8-9-0.9c3.6,3.6,3.1,7.6,1.4,11.5c-1.9,4.4-5.8,6.3-10.2,6.9c-10.3,1.4-19.8-2-28.8-6.4c-1.1-0.5-2-2.4-2.1-3.8
		c-0.3-3.5-0.1-7.1-0.1-10.5c11.2-3.6,22.4-6,25.9-18.8c18.4-3.9,37.2-7.3,55.7-11.8c18.6-4.6,36.9-10.4,52.3-23.6
		c4.3,18.9,12.5,36.7,12.1,56.2c-0.2,9.8-4.5,18.7-9.2,27.1c-10.3,18.7-26.2,31.5-44.9,41c-15.7,7.9-32.2,13.5-49.6,16.4
		c-1,0.2-2,0.7-3.5,1.2c8.9,0.6,35.2-4,60.1-16.6c-56,62-126.9,80.7-208.4,72.4c1.1-24,5-46.7,10.6-69.8
		c14.4,5.8,28.5,10.7,43.5,12.6c-10-3.2-20.2-6.1-30.1-9.6c-14.8-5.2-28.3-12.9-39.8-23.7C291.5,303.3,283.1,276.9,292.6,245.5z
		 M247.7,561.8c-0.5-0.4-1-0.9-1.6-1.3c2.4-5.8,4.8-11.6,7.2-17.6c-6.1,4.5-9.9,10.4-10.7,19.5c-6.8-1-13.2-1.8-19.6-2.9
		c-3-0.5-3.6-2.9-2.5-5.3c1.9-4.2,4.2-8.2,6.6-12.7c-5.1,2.6-8.3,6.7-10.8,12.4c-1.5-6.1,0.2-10.3,4.5-13.3
		c10.2-6.9,21.2-11.2,33.8-9.1c17.3,2.8,34.5,5.9,51.7,8.7c7,1.1,14.2,1.6,21.4,2.3C302.5,554.5,276.1,562.1,247.7,561.8z
		 M441.3,529.5c-3.1,4.8-7.7,4.9-12.6,4.6c-12.5-0.8-25-1.2-37.5-2.4c-10.7-1-19.2-7.3-27.4-13.6c-21.2-16.5-30.2-39.2-32.3-65.1
		c-0.6-7.1-0.7-14.2-1-21.1c56.9,5.2,110.9-1.3,160.8-29.2c-3.4,11.9-7.5,23.5-10.1,35.5c-3.5,16-5.7,32.4-8.7,48.5
		c-1.4,7.7-3.6,15.3-5.2,22.9c-0.7,3.2-2.2,5.4-5.1,7c-6.1,3.4-11.9,7.2-17.8,10.9C443.3,528.1,441.9,528.5,441.3,529.5z
		 M510.5,541.1c1.6,5.3,2.9,9.9,4.3,14.5c-0.4,0.4-0.7,0.8-1.1,1.2c-2.2-0.7-4.6-1.1-6.5-2.3c-3.8-2.3-7.5-4.9-10.9-7.7
		c-4-3.4-8.5-4.1-13.5-4c-0.6,4-0.8,7.9-1.7,11.6c-0.9,3.6-3.3,5.7-7.4,5.6c-2.6-0.1-4.2-0.9-4.1-3.7c0.2-3.9,0.2-7.9,0.9-11.7
		c0.7-3.5-0.1-5.7-3.4-6.6c-3.4-0.9-6.9-1.5-10.4-2c-4.5-0.5-9.1-0.7-13.6-1.1c-0.1-0.4-0.2-0.9-0.4-1.3
		c9.3-5.7,18.6-11.5,28.5-17.6c0.7,1,1.4,2,2.1,3.1c1-0.6,2-1.1,3.1-1.7c0.4,1.4,0.7,2.5,1.2,4.3c2.9-2,5.4-3.8,8.2-5.7
		c0.7,1.6,1.3,3,2,4.8c3.1-3.5,3.2,1.2,5.4,1.7c0.6-1,1.2-2.2,2-3.5c1.7,1.9,3,3.5,5,5.7c0.7-1.2,1.3-2.3,1.9-3.3
		c11,7.7,23,13,30,25.5C523.2,551.4,517.6,544.7,510.5,541.1z M606.3,533.3c4.3-0.5,8.6-0.7,12.8-1.5c12.2-2.5,22.9,1.5,33,7.7
		c4.6,2.9,7.8,6.8,6.2,13.3c-3.4-4-6.7-7.9-10-11.7c-0.4,0.3-0.9,0.6-1.3,0.9c3.1,4.9,7.6,9.3,7.1,16.3c-7,3-14.5,3.7-22.5,3.3
		c-0.8-7.5-4.1-13.3-10.1-18.3c2.4,6.2,4.6,11.8,7.2,18.5c-26.6,0.5-50.2-5.5-74-15.5C572.1,540,588.9,535.4,606.3,533.3z"/>
	<path d="M634.9,287.9c0.4,0.4,0.8,0.8,1.2,1.2c0,0,0,0,0,0c0,0,0,0,0,0c0.2,0.2,0.4,0.5,0.6,0.7c-0.2-0.3-0.3-0.5-0.5-0.8
		C635.8,288.6,635.4,288.2,634.9,287.9c0.1-0.1,0-0.2,0-0.2C634.9,287.8,634.9,287.9,634.9,287.9L634.9,287.9z"/>
	<path d="M631.7,284.5c1.1,1.1,2.1,2.1,3.2,3.2C634.7,285.8,634.8,283.7,631.7,284.5z"/>
	<path d="M639.2,291.1l0.2,0.1c0,0,0.1,0,0.1,0c0,0,0-0.1,0-0.1L639.2,291.1z"/>
</g>
</svg>
