<?xml version="1.0" standalone="no"?>
<!DOCTYPE svg PUBLIC "-//W3C//DTD SVG 20010904//EN"
 "http://www.w3.org/TR/2001/REC-SVG-20010904/DTD/svg10.dtd">
<svg version="1.0" xmlns="http://www.w3.org/2000/svg"
 width="450px" height="350" viewBox="0 0 900.000000 500.000000"
 preserveAspectRatio="xMidYMid meet">

<g transform="translate(0.000000,667.000000) scale(0.100000,-0.100000)"
fill="#000000" stroke="none">
<path d="M6310 6560 c-17 -11 -18 -10 80 -33 36 -8 74 -19 85 -23 11 -4 3 5
-17 19 -33 23 -96 47 -123 47 -5 0 -17 -4 -25 -10z"/>
<path d="M5675 6396 c-16 -7 -52 -33 -79 -57 -28 -24 -61 -53 -74 -64 -61 -50
-122 -109 -122 -117 0 -29 -60 -91 -115 -118 -67 -33 -64 -37 9 -15 111 34
284 13 636 -75 511 -128 935 -273 1035 -354 65 -53 70 -52 27 5 -36 49 -41 61
-47 129 -7 92 -22 199 -36 261 -9 41 -17 51 -62 80 -94 61 -441 165 -627 188
-86 11 -286 50 -447 87 -34 8 -72 14 -84 14 l-22 0 23 25 c27 29 26 29 -15 11z"/>
<path d="M5150 6011 c-14 -5 -50 -14 -80 -21 -30 -7 -70 -21 -88 -32 -23 -14
-46 -19 -77 -16 -38 3 -45 0 -55 -20 -15 -33 -14 -33 28 -18 20 8 106 34 191
57 106 30 148 45 135 50 -23 9 -23 9 -54 0z"/>
<path d="M4675 5860 c-53 -31 -83 -82 -62 -107 16 -21 22 -15 22 24 0 58 36
71 205 74 157 3 319 -12 510 -47 74 -13 162 -29 195 -35 111 -19 510 -117 625
-153 41 -13 109 -34 150 -45 387 -112 819 -292 1019 -426 78 -52 111 -66 93
-39 -8 13 -117 84 -219 142 -184 107 -526 241 -883 347 -63 19 -149 45 -190
59 -42 13 -114 34 -160 45 -213 51 -380 89 -440 100 -36 7 -94 19 -130 26
-211 44 -554 71 -585 45 -14 -12 -18 -11 -85 13 -8 4 -37 -7 -65 -23z"/>
<path d="M4718 5777 c-19 -7 -28 -18 -28 -33 0 -23 24 -39 42 -27 7 4 8 1 3
-7 -6 -10 -3 -12 13 -8 16 4 19 2 15 -10 -5 -11 -3 -13 7 -7 8 5 11 4 6 -3 -4
-7 9 -15 34 -22 22 -6 40 -15 40 -20 0 -13 -6 -12 -28 0 -31 18 -135 60 -138
57 -2 -2 7 -14 21 -27 24 -23 71 -42 195 -82 36 -11 76 -26 90 -33 14 -7 43
-16 66 -19 33 -6 41 -4 41 9 0 12 -7 15 -31 10 -28 -6 -27 -4 12 16 23 13 42
29 42 36 0 18 -11 16 -40 -7 -14 -11 -30 -20 -37 -20 -6 0 -13 -5 -15 -10 -2
-7 -14 -7 -35 2 -40 17 -32 29 32 50 39 13 44 16 20 15 -16 -1 -33 -5 -36 -11
-8 -11 -39 -1 -39 13 0 5 7 16 15 25 21 21 19 28 -4 14 -11 -7 -22 -22 -26
-35 -6 -24 -23 -32 -22 -10 1 30 -4 47 -13 47 -5 0 -10 -9 -10 -20 0 -11 -5
-20 -11 -20 -7 0 -9 9 -5 24 3 12 2 26 -2 30 -10 11 -9 30 3 39 6 5 2 6 -8 3
-10 -3 -23 -6 -29 -6 -6 0 -6 -6 2 -15 11 -13 8 -14 -21 -11 -61 7 -64 8 -34
16 l30 8 -27 1 c-36 1 -36 17 -1 26 54 13 350 -19 323 -35 -7 -4 10 -6 36 -4
27 1 66 0 87 -3 l39 -5 -21 -22 c-11 -11 -24 -33 -30 -48 -6 -16 -16 -28 -22
-28 -6 0 -8 7 -5 16 5 14 4 15 -9 4 -14 -12 -14 -15 0 -30 14 -16 14 -21 -1
-59 -9 -22 -20 -38 -25 -35 -6 3 -7 -11 -3 -34 8 -48 -7 -97 -45 -150 -16 -21
-32 -57 -36 -80 -12 -75 -25 -83 -156 -93 -125 -9 -161 -19 -197 -52 -21 -20
-23 -28 -17 -77 3 -30 13 -78 21 -106 14 -54 61 -114 87 -114 25 0 112 75 146
126 17 26 34 66 38 87 7 46 34 63 85 53 40 -7 86 -47 160 -141 110 -136 175
-195 220 -195 30 0 29 -19 -2 -35 -17 -9 -62 -43 -100 -76 -103 -88 -216 -138
-290 -127 -24 4 -27 2 -19 -9 26 -30 151 -3 240 52 24 16 64 48 89 72 51 49
131 92 178 96 18 1 32 8 32 15 0 14 9 15 29 3 12 -8 10 -19 -12 -68 -14 -32
-32 -87 -41 -124 -25 -108 -54 -175 -96 -218 -36 -37 -45 -41 -91 -41 -33 0
-48 -4 -44 -11 4 -6 19 -7 36 -4 16 4 38 3 50 0 18 -6 20 -12 15 -38 l-6 -31
28 27 c26 25 34 27 119 27 105 0 130 -13 157 -81 14 -35 15 -50 5 -98 -6 -31
-20 -70 -31 -88 -28 -47 -103 -109 -154 -129 -24 -9 -44 -21 -44 -26 0 -12 50
-30 67 -24 7 3 13 3 13 -1 0 -7 -92 -93 -100 -93 -11 0 -47 73 -55 110 -12 54
-6 119 16 161 22 44 23 49 9 49 -6 0 -20 -20 -32 -45 -23 -47 -37 -57 -39 -27
-1 19 -21 -45 -20 -68 0 -8 5 -38 12 -67 16 -70 8 -99 -56 -227 -30 -60 -55
-116 -55 -125 0 -10 -5 -22 -11 -28 -8 -8 -8 -13 0 -18 8 -4 2 -19 -17 -43
-62 -79 -105 -199 -101 -280 1 -26 -1 -54 -5 -61 -5 -8 3 -24 22 -44 23 -24
29 -36 22 -47 -5 -8 -10 -24 -10 -36 0 -18 -8 -22 -57 -27 -34 -4 -77 -1 -109
8 -29 7 -90 16 -136 20 -150 11 -145 9 -178 75 -17 33 -30 62 -30 66 0 3 13 3
30 -1 26 -6 30 -3 36 22 3 15 7 33 9 38 5 20 -39 85 -76 109 -35 24 -37 28
-44 98 -4 40 -15 109 -24 152 l-17 80 -65 17 c-87 23 -346 86 -444 109 -44 9
-123 29 -175 42 -88 24 -181 45 -356 82 -125 27 -543 95 -592 96 -7 0 -11 -4
-8 -9 8 -12 -48 -86 -79 -107 -20 -13 -25 -25 -25 -58 0 -47 -28 -112 -59
-140 -11 -11 -21 -23 -21 -28 0 -5 -7 -24 -14 -43 l-15 -35 -77 55 -76 55 -79
0 c-76 0 -83 -2 -150 -42 l-71 -42 7 -61 c9 -88 24 -131 56 -161 16 -15 29
-36 29 -47 0 -11 5 -17 13 -14 6 2 32 -6 57 -18 71 -36 146 -48 211 -34 30 6
60 16 68 23 24 19 60 83 66 117 11 63 25 65 59 7 13 -24 36 -86 50 -138 14
-52 44 -146 66 -209 22 -63 39 -116 36 -118 -2 -2 -20 3 -41 11 -27 12 -68 15
-168 13 -132 -2 -132 -2 -207 33 l-74 35 -161 -3 c-190 -3 -609 -3 -1008 2
l-288 4 7 -22 c18 -59 32 -72 86 -84 29 -7 78 -24 108 -39 30 -14 79 -31 108
-37 l52 -11 -39 -43 c-78 -85 -60 -174 37 -188 55 -8 66 -16 98 -66 32 -50 66
-55 174 -28 110 28 133 41 154 88 15 33 28 44 75 64 l57 25 90 -18 c49 -10
103 -19 119 -19 17 0 71 -9 120 -20 50 -11 178 -33 285 -50 259 -41 409 -69
442 -81 19 -8 28 -20 33 -45 8 -44 66 -109 108 -123 53 -18 136 -31 257 -41
237 -20 256 -25 225 -57 -18 -17 -18 -18 9 -21 15 -2 41 1 57 7 37 13 44 0 35
-63 -8 -49 9 -110 24 -86 5 8 6 26 3 42 -9 46 5 93 42 135 56 65 44 71 -35 18
-61 -41 -96 -48 -63 -12 59 63 88 185 63 262 -7 21 -30 57 -52 81 l-38 42 242
5 c134 3 256 9 272 13 26 6 28 5 21 -12 -58 -140 -19 -602 61 -719 19 -27 17
-37 -6 -31 -58 17 -65 17 -35 0 17 -9 44 -27 60 -39 23 -17 54 -26 129 -34
108 -13 131 -10 63 8 -24 6 -49 16 -54 23 -16 20 -33 102 -33 158 l0 51 71 -3
71 -3 33 -108 c18 -60 37 -113 44 -120 8 -8 25 -5 66 12 l55 23 30 -22 c18
-13 37 -19 49 -15 28 9 44 -27 46 -99 2 -51 -8 -83 -80 -270 -88 -225 -164
-371 -217 -417 -27 -23 -43 -28 -86 -29 -72 0 -87 -11 -111 -74 -20 -53 -20
-56 -2 -143 21 -103 30 -124 72 -154 23 -16 40 -20 70 -16 21 3 39 2 39 -2 0
-25 131 -43 145 -21 4 6 12 4 21 -5 10 -10 35 -15 68 -15 51 0 55 2 78 38 55
83 68 119 68 190 0 95 19 142 88 217 32 35 71 88 87 117 16 29 41 65 57 79 15
15 48 68 73 120 25 51 54 102 65 114 11 12 20 25 20 31 0 5 7 17 14 27 13 17
18 16 83 -26 78 -50 117 -71 151 -81 37 -12 28 19 -52 180 -41 82 -74 150 -73
151 1 0 67 6 147 11 93 6 147 6 151 0 3 -5 9 -45 12 -88 4 -43 11 -98 16 -122
6 -23 13 -60 16 -80 3 -21 11 -38 17 -38 6 0 64 54 129 120 l118 120 78 -56
c43 -31 84 -59 91 -61 27 -11 9 -45 -60 -115 -96 -97 -203 -153 -287 -152 -53
2 -222 49 -283 80 -27 14 -27 13 -34 -22 -9 -50 2 -103 27 -130 12 -13 21 -26
18 -28 -2 -2 -46 -16 -98 -31 -109 -30 -138 -44 -167 -77 -18 -20 -64 -94 -64
-103 0 -9 199 -16 570 -20 334 -2 427 0 478 11 34 8 100 16 146 17 69 2 82 4
73 15 -17 21 -89 68 -117 77 -14 4 -41 21 -60 36 -19 16 -40 29 -47 29 -29 0
-4 38 40 62 12 6 40 23 62 37 121 77 730 234 839 216 22 -3 104 -39 182 -79
139 -71 160 -74 109 -16 -12 14 -36 45 -52 70 -17 25 -57 77 -90 115 -32 39
-79 99 -103 135 -59 87 -152 198 -197 235 -20 17 -48 48 -62 70 -38 58 -84
119 -99 128 -6 4 -30 32 -52 62 -22 29 -68 75 -102 101 -90 69 -168 160 -168
197 0 7 -11 28 -25 47 -48 65 -12 44 66 -40 58 -61 82 -81 88 -71 6 10 13 10
28 2 11 -6 42 -15 69 -21 51 -11 133 -56 220 -122 28 -21 53 -38 57 -38 14 0
146 -82 167 -105 18 -19 20 -24 7 -19 -10 3 -17 1 -17 -5 0 -8 -6 -8 -19 1
-15 9 -23 9 -35 -1 -24 -20 -174 60 -286 154 -84 70 -122 93 -103 63 11 -19
152 -151 177 -166 12 -8 30 -33 39 -57 19 -44 76 -105 100 -105 7 0 40 -24 73
-53 32 -29 84 -69 114 -89 30 -20 101 -81 157 -137 59 -59 110 -101 121 -101
11 0 28 -12 37 -27 10 -15 35 -45 57 -67 41 -43 48 -59 21 -49 -12 5 -14 3 -8
-7 6 -10 4 -12 -8 -7 -14 5 -16 1 -12 -26 3 -18 3 -26 -1 -19 -11 24 -19 12
-19 -31 0 -23 7 -53 15 -67 8 -14 24 -50 36 -80 l21 -55 58 -3 c47 -2 68 2
104 21 53 28 167 68 262 92 l66 16 -12 37 c-22 65 -54 185 -48 178 18 -17 83
-152 83 -171 0 -7 5 -17 10 -20 6 -3 10 -16 10 -28 0 -13 21 -57 46 -100 l46
-77 98 0 c53 0 118 3 144 6 43 6 48 10 80 63 19 31 46 67 59 80 14 12 31 36
37 51 11 25 8 34 -25 87 -21 32 -71 90 -113 128 -42 39 -119 114 -173 167 -90
90 -102 106 -168 237 -39 77 -73 153 -75 169 -1 16 -22 56 -44 90 -23 33 -42
63 -42 66 0 4 17 6 38 6 55 0 149 56 195 116 20 27 52 78 70 114 17 36 33 67
35 70 2 2 7 -2 12 -9 10 -16 24 95 18 148 l-3 34 -36 -39 c-158 -171 -158
-171 -218 -188 -74 -21 -251 -22 -289 -2 -15 8 -52 40 -82 71 -30 31 -71 65
-91 75 -48 25 -64 76 -44 143 8 26 12 47 11 47 -2 0 -27 -16 -56 -35 -30 -20
-75 -39 -111 -47 -84 -17 -75 -32 17 -25 42 4 73 3 70 -2 -10 -16 -134 -60
-198 -71 -120 -19 -129 -17 -210 54 -70 61 -191 148 -219 158 -33 12 9 18 187
28 104 5 209 13 234 16 111 14 319 58 354 75 25 12 42 15 46 9 11 -18 90 49
90 76 0 13 -1 24 -3 24 -2 0 -51 -17 -110 -39 l-107 -39 0 37 c1 20 7 67 14
104 l13 69 -53 57 c-29 32 -56 69 -59 84 -6 22 -3 27 18 32 51 13 85 65 114
171 57 208 11 357 -167 549 -44 48 -80 90 -80 95 0 28 402 324 470 345 20 6
19 8 -11 42 -17 20 -36 49 -41 66 -9 24 -13 26 -20 14 -4 -9 -34 -31 -66 -49
-31 -18 -64 -37 -73 -43 -21 -13 -201 -138 -333 -232 -118 -83 -141 -91 -186
-68 -18 9 -56 19 -86 22 l-53 6 -28 65 -28 66 -15 -50 c-8 -27 -22 -63 -32
-79 -18 -33 -101 -115 -136 -134 -20 -11 -21 -10 -16 19 9 43 -10 38 -39 -12
-14 -24 -43 -60 -64 -80 -47 -46 -164 -108 -203 -108 -38 0 -378 -226 -417
-277 -15 -20 -37 -64 -49 -99 l-21 -63 -37 25 c-47 32 -86 111 -86 174 0 86
49 208 113 277 23 25 16 43 -8 23 -23 -19 -20 14 6 66 27 58 71 94 174 145 47
23 81 46 75 49 -19 12 28 34 200 93 91 32 181 65 200 73 47 20 121 90 150 142
26 46 35 50 68 26 28 -20 28 -13 -3 36 -14 22 -37 79 -51 127 -28 96 -29 180
-1 258 l14 40 74 6 c41 3 65 7 54 8 -11 1 -29 4 -40 7 -11 2 -31 5 -45 7 -24
2 -25 5 -28 90 l-3 88 28 -7 c15 -4 33 -10 38 -14 6 -4 23 -10 40 -14 68 -17
263 -114 276 -138 5 -10 17 -18 26 -18 14 0 14 -2 -3 -15 -12 -9 -44 -15 -84
-15 -46 -1 -59 -4 -45 -10 23 -10 131 -2 158 12 25 13 21 29 -18 64 -33 29
-190 114 -210 114 -5 0 -27 9 -49 20 -118 56 -736 262 -963 320 -61 16 -142
37 -180 48 -37 11 -79 22 -93 25 -26 6 -89 23 -205 55 -146 40 -323 72 -625
113 -89 12 -299 9 -332 -4z m117 -97 c3 -5 2 -10 -4 -10 -5 0 -13 5 -16 10 -3
6 -2 10 4 10 5 0 13 -4 16 -10z m830 -41 c44 -11 86 -26 93 -32 21 -17 52 -84
52 -111 0 -14 5 -28 10 -31 17 -10 11 78 -6 103 -9 13 -14 25 -11 28 6 7 94
-15 375 -92 l53 -15 -7 -47 c-10 -72 -63 -199 -119 -287 -49 -77 -162 -197
-208 -220 -11 -5 -23 -16 -25 -24 -5 -16 7 -15 208 23 75 14 180 28 234 32 90
7 99 6 93 -9 -5 -14 1 -17 34 -17 178 0 381 -181 383 -341 0 -57 -29 -123 -70
-160 -11 -9 -86 -40 -169 -68 -82 -29 -178 -66 -211 -83 -57 -28 -72 -31 -210
-39 -82 -4 -168 -8 -192 -8 -30 -1 -41 -5 -36 -12 5 -9 53 -10 175 -5 93 4
169 3 169 -1 0 -4 -21 -19 -47 -33 -96 -51 -146 -115 -159 -205 -4 -27 -22
-79 -39 -115 -58 -116 -66 -218 -24 -301 20 -39 86 -103 117 -113 18 -6 51
-71 40 -81 -1 -2 -34 -25 -72 -51 -64 -43 -71 -46 -80 -30 -56 94 -98 120
-157 97 -19 -7 -41 -5 -79 6 -36 11 -79 14 -136 11 l-83 -4 -11 29 c-24 69 -5
140 68 249 29 45 22 59 -19 36 -16 -9 -29 -13 -29 -8 0 13 79 75 127 99 23 11
44 25 48 31 8 13 7 13 -48 -6 -25 -8 -58 -14 -74 -12 l-28 3 38 19 c40 20 103
89 131 145 42 80 27 198 -30 252 -24 23 -32 24 -135 22 -63 -1 -109 2 -109 8
0 5 4 9 10 9 15 0 67 77 84 123 8 23 22 76 31 117 9 41 28 102 42 134 24 55
24 60 9 71 -15 12 -15 13 0 19 26 10 69 7 114 -9 24 -8 46 -13 48 -10 9 9 -21
32 -57 44 -45 15 -79 14 -148 -4 -141 -37 -186 -14 -345 175 -26 30 -63 73
-83 95 -43 48 -43 48 29 201 53 111 140 252 205 333 41 51 118 103 141 96 8
-3 51 -14 95 -26z m-758 -26 c-9 -8 -48 8 -42 18 4 5 14 5 26 -2 12 -6 18 -13
16 -16z m49 -9 c-23 -16 -36 -18 -36 -4 0 6 9 10 20 10 11 0 20 5 20 12 0 6 3
8 7 4 5 -4 -1 -14 -11 -22z m-1683 -1795 c42 -7 77 -16 77 -19 0 -4 -12 -12
-27 -19 -43 -20 -101 -68 -218 -182 -145 -142 -235 -213 -235 -184 0 20 97
203 136 255 69 94 150 172 172 166 9 -3 52 -10 95 -17z m212 -59 c8 -16 15
-45 15 -65 0 -25 4 -35 13 -32 14 4 15 71 2 101 -5 13 -5 17 2 13 6 -4 46 -13
89 -21 43 -8 119 -24 168 -36 l88 -22 -6 -42 c-9 -55 -37 -111 -97 -193 -52
-72 -152 -178 -181 -194 -10 -5 -18 -15 -18 -21 0 -11 46 -8 148 11 37 7 59 7
71 -1 13 -8 36 -6 89 6 90 20 122 21 122 1 0 -12 13 -15 58 -15 84 -1 196 -17
234 -35 l33 -15 -30 5 c-95 17 -108 18 -102 8 4 -6 37 -20 74 -32 81 -24 141
-66 181 -126 73 -110 65 -191 -27 -285 -68 -69 -152 -110 -294 -146 -90 -23
-129 -27 -334 -31 -161 -4 -273 -1 -365 8 -73 8 -190 13 -260 11 -255 -5 -366
39 -462 183 -32 49 -32 55 -1 55 19 0 28 -8 39 -35 18 -42 55 -59 111 -50 51
8 85 30 85 55 0 28 16 33 47 16 43 -24 77 -56 110 -106 35 -51 83 -99 83 -82
0 6 -4 13 -10 17 -5 3 -34 45 -63 93 -58 94 -116 239 -167 417 -18 61 -37 119
-42 130 -6 11 7 0 29 -25 l41 -45 83 -3 c96 -4 183 19 253 68 61 41 82 68 117
145 29 64 31 76 27 155 -3 61 -10 97 -26 127 -26 51 -26 50 -4 56 44 12 62 7
77 -23z m-95 -45 c34 -70 34 -188 -2 -266 -53 -116 -132 -172 -268 -190 -81
-11 -130 -7 -130 11 0 6 6 10 13 10 23 0 64 43 81 84 19 45 24 118 12 159 -8
27 -3 34 65 101 76 75 176 148 194 143 5 -2 21 -25 35 -52z m-828 -195 c76
-22 128 -94 93 -129 -23 -23 -95 -18 -152 10 -119 59 -71 155 59 119z m345
-157 c2 -6 -5 -13 -15 -15 -15 -4 -18 -1 -14 14 5 19 23 20 29 1z m3355 -225
c12 -29 37 -82 54 -118 18 -35 30 -68 28 -72 -9 -14 -30 -9 -50 13 -10 12 -44
34 -75 50 -45 22 -58 34 -61 56 -3 15 -8 35 -11 43 -4 10 8 26 35 48 22 17 44
32 49 32 5 0 19 -24 31 -52z m-204 -185 c42 -18 62 -31 60 -41 -3 -14 -134
-124 -179 -152 -13 -7 -34 5 -98 55 -76 60 -117 83 -127 72 -2 -2 0 -42 5 -88
5 -46 6 -88 1 -93 -10 -10 -310 -4 -326 7 -8 5 -5 25 13 69 14 35 27 65 29 67
3 4 136 37 204 50 25 5 106 25 180 44 74 20 144 36 155 36 11 1 48 -11 83 -26z
m324 -120 c46 -70 58 -92 78 -144 33 -84 71 -238 80 -326 8 -75 6 -90 -15
-151 -52 -147 -105 -267 -117 -265 -12 2 -268 103 -277 109 -2 2 24 37 56 77
94 116 144 214 130 251 -5 13 -10 13 -35 1 -49 -25 -255 -95 -261 -89 -8 8 -6
303 3 346 l7 38 37 -19 c56 -28 244 -73 256 -61 14 14 -22 85 -85 168 -36 46
-47 68 -38 71 121 40 151 39 181 -6z m-3472 2 c0 -31 -26 -45 -87 -45 -51 0
-73 12 -73 41 0 18 20 22 123 27 33 2 37 -1 37 -23z m3981 -11 c111 -20 188
-49 263 -97 59 -39 66 -63 9 -34 -56 29 -166 48 -323 57 -88 5 -166 7 -173 5
-6 -2 -55 -6 -108 -9 l-95 -6 -18 36 c-9 20 -15 38 -13 41 25 25 337 30 458 7z
m-1986 -71 c131 -154 308 -336 447 -462 42 -38 47 -46 41 -74 -8 -44 -40 -105
-74 -145 -16 -18 -29 -31 -29 -30 -4 30 -48 133 -58 133 -13 0 -52 -66 -109
-185 -19 -41 -36 -76 -38 -78 -12 -14 -245 61 -245 80 0 5 26 43 58 84 104
134 134 176 128 181 -3 3 -25 1 -48 -5 -24 -6 -98 -14 -165 -17 l-123 -7 -11
29 c-12 32 -18 227 -7 238 4 4 33 1 65 -8 32 -9 91 -19 131 -23 61 -6 72 -4
72 9 0 8 -40 56 -90 106 -49 50 -90 93 -90 96 0 7 113 95 123 95 4 0 14 -8 22
-17z m1780 -909 c28 -19 97 -74 155 -122 58 -48 144 -118 193 -156 48 -38 87
-72 87 -76 0 -10 -79 -64 -136 -93 -63 -32 -189 -72 -274 -88 -124 -23 -480
-6 -480 22 0 15 21 47 89 138 78 106 174 306 216 448 l6 22 47 -30 c26 -16 70
-46 97 -65z m895 -53 c41 -20 82 -37 90 -38 48 -4 258 -98 309 -138 32 -25 91
-85 91 -93 0 -6 25 -36 55 -67 31 -32 53 -60 50 -63 -3 -3 -15 4 -28 15 -34
32 -90 63 -113 63 -25 0 -87 33 -138 74 -49 39 -56 27 -12 -22 20 -22 36 -47
36 -56 0 -17 -50 17 -143 96 -93 80 -91 71 6 -32 53 -57 97 -110 97 -119 0 -9
-37 24 -82 73 -93 101 -231 235 -298 292 -25 20 -36 34 -26 30 20 -7 20 -7 0
15 l-19 22 25 -8 c14 -4 59 -24 100 -44z m770 -405 c0 -3 -4 -8 -10 -11 -5 -3
-10 -1 -10 4 0 6 5 11 10 11 6 0 10 -2 10 -4z"/>
<path d="M5533 5531 c-116 -40 -210 -154 -257 -310 -40 -135 -1 -251 83 -251
19 0 62 7 95 15 34 8 84 16 111 17 46 3 54 7 96 53 74 79 103 145 108 239 4
89 -9 146 -45 194 -20 25 -22 32 -10 32 21 0 20 16 0 24 -31 12 -130 5 -181
-13z m150 -26 c42 -43 61 -94 65 -177 4 -70 1 -84 -25 -141 -34 -71 -82 -131
-124 -153 -15 -7 -50 -14 -76 -14 -27 0 -63 -4 -81 -9 -17 -5 -32 -8 -32 -7 0
2 16 33 35 70 47 91 49 154 4 198 -27 28 -34 30 -75 24 -24 -3 -44 -3 -44 -1
0 13 56 94 89 129 91 97 211 133 264 81z"/>
<path d="M4925 5720 c3 -5 12 -7 20 -3 21 7 19 13 -6 13 -11 0 -18 -4 -14 -10z"/>
<path d="M5003 5713 c9 -2 23 -2 30 0 6 3 -1 5 -18 5 -16 0 -22 -2 -12 -5z"/>
<path d="M5018 5607 c-33 -13 -37 -27 -8 -27 11 0 20 5 20 10 0 6 9 10 20 10
11 0 20 5 20 10 0 12 -16 11 -52 -3z"/>
<path d="M5160 5560 c-16 -11 -15 -11 18 -15 13 -1 22 3 22 11 0 16 -18 18
-40 4z"/>
<path d="M9507 5407 c-26 -51 -39 -81 -28 -67 12 14 23 33 27 43 3 9 11 17 18
17 10 0 40 90 33 97 -1 0 -24 -40 -50 -90z"/>
<path d="M7274 5317 c38 -42 71 -77 73 -77 11 0 -74 103 -105 126 -28 21 -20
9 32 -49z"/>
<path d="M8725 5107 c-164 -86 -308 -170 -517 -303 l-178 -113 -17 30 c-10 16
-20 29 -23 29 -3 0 -6 -28 -8 -62 l-3 -61 33 25 c139 106 723 448 844 494 51
19 54 24 17 24 -16 0 -82 -29 -148 -63z"/>
<path d="M8740 5028 c-264 -227 -473 -398 -601 -491 -13 -9 -33 -24 -44 -33
-19 -15 -19 -15 5 -8 32 9 258 178 404 301 261 222 356 307 356 318 0 13 -24
-4 -120 -87z"/>
<path d="M7460 5040 c0 -5 5 -10 11 -10 5 0 7 5 4 10 -3 6 -8 10 -11 10 -2 0
-4 -4 -4 -10z"/>
<path d="M7113 5033 c9 -2 25 -2 35 0 9 3 1 5 -18 5 -19 0 -27 -2 -17 -5z"/>
<path d="M7178 5023 c7 -3 16 -2 19 1 4 3 -2 6 -13 5 -11 0 -14 -3 -6 -6z"/>
<path d="M3945 4747 c-14 -23 -23 -28 -43 -24 -13 3 -40 -1 -58 -9 -18 -8 -55
-14 -82 -14 -29 0 -63 -8 -87 -21 -26 -14 -31 -19 -15 -15 103 24 185 29 283
17 168 -20 299 -72 402 -162 l50 -44 -48 58 c-26 33 -47 62 -47 67 0 4 -18 10
-41 13 -22 3 -75 22 -116 42 -41 20 -99 42 -129 48 -59 12 -66 20 -33 38 32
17 100 4 122 -22 11 -14 21 -19 27 -13 7 7 0 20 -19 38 -25 24 -38 28 -90 30
-56 1 -61 -1 -76 -27z"/>
<path d="M4846 4692 c-6 -18 1 -32 35 -70 62 -68 78 -73 31 -10 -23 29 -45 65
-50 78 l-9 25 -7 -23z"/>
<path d="M3590 4650 c-14 -4 -37 -8 -52 -9 -18 -1 -43 -17 -76 -50 -27 -27
-71 -61 -98 -74 -27 -14 -65 -42 -84 -62 -19 -21 -47 -45 -62 -55 -43 -26 -89
-100 -77 -122 9 -16 3 -22 -39 -41 -48 -22 -49 -24 -37 -47 7 -14 11 -28 8
-33 -3 -4 -30 -7 -61 -6 -32 0 -79 -4 -107 -10 -27 -7 -90 -11 -140 -10 -50 1
-103 -3 -118 -10 -16 -6 -40 -11 -54 -11 -15 0 -24 -2 -21 -5 3 -3 99 2 214
11 342 26 693 10 937 -45 23 -6 76 -17 117 -26 176 -38 357 -90 540 -154 107
-38 203 -72 213 -76 14 -6 17 -1 19 26 0 19 0 41 0 49 -1 8 -4 49 -6 90 -9
146 -19 204 -38 235 -11 16 -17 22 -14 11 4 -12 2 -17 -6 -13 -7 3 -49 21 -93
41 -138 60 -381 120 -478 117 -40 -1 -65 4 -187 37 -108 29 -226 52 -343 66
l-102 12 75 53 c41 30 107 69 145 87 68 32 76 40 25 24z"/>
<path d="M4409 4464 c8 -10 27 -32 42 -49 15 -16 40 -50 54 -75 15 -25 24 -36
20 -25 -4 11 -10 39 -12 63 -3 23 -11 42 -18 42 -7 0 -32 14 -56 32 -27 19
-38 24 -30 12z"/>
<path d="M8145 4331 c2 -35 6 -66 9 -69 10 -9 5 92 -5 113 -6 14 -7 0 -4 -44z"/>
<path d="M5247 4289 c7 -7 15 -10 18 -7 3 3 -2 9 -12 12 -14 6 -15 5 -6 -5z"/>
<path d="M2437 4103 c-3 -2 -38 -10 -77 -17 -67 -11 -73 -14 -86 -44 -11 -27
-11 -32 1 -32 8 0 15 9 15 20 0 12 10 24 23 30 29 12 154 30 208 30 23 0 40 2
38 4 -7 6 -117 15 -122 9z"/>
<path d="M5385 4092 c-7 -5 -7 -22 1 -52 7 -25 13 -35 13 -24 1 12 4 36 7 53
6 30 -1 38 -21 23z"/>
<path d="M2306 4041 c-16 -25 41 -35 374 -67 91 -8 185 -20 210 -26 25 -5 90
-16 145 -24 55 -7 138 -20 185 -28 47 -8 119 -20 160 -27 194 -29 270 -44 432
-83 57 -14 139 -32 183 -41 126 -27 668 -162 795 -199 191 -55 378 -106 394
-106 8 0 16 -8 18 -17 3 -17 4 -17 10 -1 11 28 -28 46 -200 93 -86 24 -197 55
-247 70 -146 44 -527 139 -763 191 -64 15 -175 39 -247 55 -182 41 -316 66
-595 110 -41 6 -127 20 -190 31 -63 10 -202 27 -309 38 -192 19 -256 26 -318
36 -17 2 -34 0 -37 -5z"/>
<path d="M2520 3950 c34 -11 60 -11 35 0 -11 5 -29 8 -40 8 -16 0 -15 -2 5 -8z"/>
<path d="M2600 3930 c14 -4 36 -8 50 -8 23 -1 23 0 5 8 -11 5 -33 8 -50 8 -29
0 -29 0 -5 -8z"/>
<path d="M2918 3893 c7 -3 16 -2 19 1 4 3 -2 6 -13 5 -11 0 -14 -3 -6 -6z"/>
<path d="M4880 3666 c0 -2 7 -7 16 -10 8 -3 12 -2 9 4 -6 10 -25 14 -25 6z"/>
<path d="M4700 3510 c8 -5 26 -9 40 -9 l25 1 -25 8 c-14 4 -32 8 -40 9 -13 1
-13 0 0 -9z"/>
<path d="M5120 3516 c0 -3 9 -10 20 -16 11 -6 20 -8 20 -6 0 3 -9 10 -20 16
-11 6 -20 8 -20 6z"/>
<path d="M4778 3493 c7 -3 16 -2 19 1 4 3 -2 6 -13 5 -11 0 -14 -3 -6 -6z"/>
<path d="M4943 3446 c32 -14 82 -27 110 -30 44 -5 36 -1 -48 24 -120 36 -140
38 -62 6z"/>
<path d="M2390 3147 c0 -14 5 -29 10 -32 7 -4 8 3 4 22 -9 38 -14 42 -14 10z"/>
<path d="M7770 2813 c-47 -24 -86 -48 -88 -53 -2 -4 23 -1 55 7 46 11 65 22
91 54 18 21 32 38 30 37 -2 0 -41 -21 -88 -45z"/>
<path d="M8511 2400 c-6 -22 -26 -56 -43 -76 -17 -19 -27 -38 -23 -42 4 -4 22
10 40 31 19 22 38 36 43 33 8 -5 5 82 -3 92 -1 1 -7 -16 -14 -38z"/>
<path d="M8455 2205 c-24 -21 -34 -35 -25 -35 23 0 57 27 63 50 3 11 4 20 4
20 -1 -1 -20 -16 -42 -35z"/>
<path d="M3838 2089 c-14 -33 -14 -38 -3 -29 8 7 15 9 15 4 0 -20 20 23 20 44
0 34 -13 26 -32 -19z"/>
<path d="M8437 2095 l-28 -35 31 0 c28 0 30 3 30 35 0 19 -1 35 -2 35 -2 0
-16 -16 -31 -35z"/>
<path d="M3930 1983 c0 -20 7 -31 25 -40 30 -14 31 -8 5 35 -24 39 -30 40 -30
5z"/>
<path d="M3870 1972 c0 -14 6 -22 16 -22 14 0 15 3 3 18 -7 9 -15 19 -16 21
-2 2 -3 -5 -3 -17z"/>
<path d="M4730 1656 c0 -2 7 -7 16 -10 8 -3 12 -2 9 4 -6 10 -25 14 -25 6z"/>
<path d="M4809 1620 c13 -11 30 -20 38 -20 23 0 6 17 -29 29 l-33 11 24 -20z"/>
</g>
</svg>
