<?xml version="1.0" standalone="no"?>
<!DOCTYPE svg PUBLIC "-//W3C//DTD SVG 20010904//EN"
 "http://www.w3.org/TR/2001/REC-SVG-20010904/DTD/svg10.dtd">
<svg version="1.0" xmlns="http://www.w3.org/2000/svg"
 width="56" height="49" viewBox="0 0 550.000000 550.000000"
 preserveAspectRatio="xMidYMid meet">

<g transform="translate(0.000000,550.000000) scale(0.100000,-0.100000)"
fill="#000000" stroke="none">
<path d="M3115 3836 c-35 -15 -88 -73 -82 -90 8 -23 37 -16 64 14 16 18 43 35
63 39 26 5 36 13 38 29 3 18 -1 22 -25 22 -15 -1 -42 -7 -58 -14z"/>
<path d="M3210 3771 c-53 -11 -98 -38 -113 -69 -21 -40 -27 -75 -18 -91 14
-21 38 -6 46 28 8 37 57 80 93 83 15 1 34 2 42 4 8 1 21 2 28 3 18 1 15 38 -4
45 -18 7 -25 6 -74 -3z" fill="#11B55B"/>
<path d="M3266 3686 c-50 -19 -102 -70 -117 -114 -7 -21 -9 -61 -6 -97 l6 -63
-47 -39 c-26 -22 -83 -73 -127 -113 -113 -104 -180 -133 -310 -138 -75 -3
-123 1 -192 17 -164 37 -256 28 -425 -43 -135 -56 -156 -51 -235 62 -26 37
-48 69 -51 72 -2 3 -12 -6 -23 -20 -83 -102 -78 -239 12 -328 28 -29 31 -37
23 -60 -12 -34 -58 -41 -115 -18 -183 73 -290 -136 -146 -284 35 -36 119 -80
155 -80 27 0 27 -7 2 -45 -28 -42 -27 -112 3 -155 12 -19 44 -45 72 -59 66
-34 167 -36 239 -3 l48 22 49 -41 c115 -96 298 -185 444 -216 91 -19 260 -18
355 2 160 33 257 74 381 161 l77 53 53 -21 c176 -67 410 60 370 200 -9 31 -9
32 32 43 71 18 158 71 188 112 57 78 45 166 -26 209 l-35 20 83 78 c100 95
138 158 144 244 4 49 1 70 -15 102 -24 48 -177 197 -250 244 l-54 35 7 88 c6
78 5 90 -11 109 -44 48 -106 60 -172 33 -48 -21 -75 -47 -97 -96 -15 -32 -23
-39 -46 -39 -23 0 -29 6 -39 38 -21 65 -41 100 -65 116 -35 23 -95 28 -139 12z
m111 -97 c7 -13 23 -50 37 -81 24 -57 26 -58 64 -58 22 0 53 -3 69 -6 29 -6
31 -4 41 38 6 24 24 56 40 72 36 33 97 45 126 23 18 -13 19 -19 8 -67 -24
-104 -21 -113 58 -165 97 -62 247 -208 259 -251 18 -66 -15 -138 -105 -228
-93 -93 -206 -164 -297 -187 l-48 -12 22 -23 c26 -28 59 -30 120 -8 95 34 179
15 179 -41 0 -92 -175 -174 -371 -175 -60 0 -82 -4 -100 -19 -21 -17 -22 -21
-9 -36 15 -18 15 -17 133 1 74 12 93 -51 32 -105 -70 -61 -189 -76 -274 -34
l-40 20 -23 -24 c-38 -41 -178 -129 -248 -157 -207 -81 -398 -93 -589 -34 -97
29 -249 112 -339 184 l-79 63 -43 -21 c-47 -24 -121 -34 -174 -24 -49 9 -96
56 -96 95 0 51 35 77 111 85 92 10 100 18 60 55 -32 30 -37 31 -120 31 -55 0
-105 6 -135 16 -120 41 -174 176 -93 229 23 14 28 14 76 -5 56 -22 115 -26
155 -10 36 13 66 67 66 116 0 33 -6 46 -36 75 -20 18 -42 46 -50 61 -15 28
-19 114 -6 121 4 3 18 -12 31 -33 13 -21 42 -48 63 -60 53 -30 128 -23 221 19
141 65 235 75 390 40 125 -28 262 -28 340 0 87 30 131 59 247 162 58 52 124
109 146 126 l42 33 -14 37 c-30 87 -2 167 66 189 42 14 71 5 87 -27z" fill="#11B55B"/>
<path d="M3509 3216 c-49 -24 -28 -106 27 -106 31 0 54 26 54 59 0 44 -41 67
-81 47z" fill="#11B55B"/>
<path d="M3976 3114 l-29 -16 24 -19 c43 -33 93 -20 87 22 -4 30 -41 36 -82
13z" fill="#11B55B"/>
<path d="M3967 3020 c-16 -10 -36 -32 -45 -51 -21 -40 -47 -53 -38 -18 6 21 5
21 -9 -4 -17 -30 -35 -28 -35 4 0 14 -7 19 -30 19 -28 0 -30 -2 -30 -38 0 -47
14 -62 60 -62 35 0 73 19 98 50 16 19 64 111 60 115 -2 1 -16 -6 -31 -15z" fill="#11B55B"/>
<path d="M1989 3307 c-44 -24 -60 -50 -41 -69 7 -7 25 -1 55 16 37 22 52 25
86 20 37 -6 41 -5 41 15 0 14 -9 25 -26 31 -39 15 -67 12 -115 -13z" fill="#11B55B"/>
<path d="M2040 3235 c-47 -15 -110 -67 -110 -92 0 -26 30 -26 58 -1 46 43 72
52 155 50 69 -1 77 1 77 18 0 25 -9 29 -77 35 -36 3 -75 -1 -103 -10z" fill="#11B55B"/>
</g>
</svg>
