<svg id="Шар_1" data-name="Шар 1" xmlns="http://www.w3.org/2000/svg" viewBox="0 0 149.75 30.63"><title>footer_icon</title><circle cx="55.02" cy="15.31" r="15.31" style="fill:#33ac5c"/><path d="M56.4,8.74c2.57,0,2.88,0,3.9.06a5.34,5.34,0,0,1,1.79.33A3.19,3.19,0,0,1,63.92,11a5.34,5.34,0,0,1,.33,1.79c0,1,.06,1.32.06,3.9s0,2.88-.06,3.9a5.34,5.34,0,0,1-.33,1.79,3.19,3.19,0,0,1-1.83,1.83,5.34,5.34,0,0,1-1.79.33c-1,0-1.32.06-3.9.06s-2.88,0-3.9-.06a5.34,5.34,0,0,1-1.79-.33,3.19,3.19,0,0,1-1.83-1.83,5.34,5.34,0,0,1-.33-1.79c0-1-.06-1.32-.06-3.9s0-2.88.06-3.9A5.34,5.34,0,0,1,48.89,11a3.19,3.19,0,0,1,1.83-1.83,5.34,5.34,0,0,1,1.79-.33c1,0,1.32-.06,3.9-.06M56.4,7c-2.62,0-2.95,0-4,.06a7.08,7.08,0,0,0-2.34.45,4.93,4.93,0,0,0-2.82,2.82,7.08,7.08,0,0,0-.45,2.34c0,1-.06,1.36-.06,4s0,2.95.06,4A7.08,7.08,0,0,0,47.27,23a4.93,4.93,0,0,0,2.82,2.82,7.08,7.08,0,0,0,2.34.45c1,0,1.36.06,4,.06s2.95,0,4-.06a7.08,7.08,0,0,0,2.34-.45A4.93,4.93,0,0,0,65.54,23,7.08,7.08,0,0,0,66,20.62c0-1,.06-1.36.06-4s0-2.95-.06-4a7.08,7.08,0,0,0-.45-2.34,4.93,4.93,0,0,0-2.82-2.82,7.08,7.08,0,0,0-2.34-.45C59.35,7,59,7,56.4,7Z" transform="translate(-1.38 -1.33)" style="fill:#fff"/><path d="M56.4,11.7a5,5,0,1,0,5,5A5,5,0,0,0,56.4,11.7Zm0,8.17a3.21,3.21,0,1,1,3.21-3.21A3.21,3.21,0,0,1,56.4,19.86Z" transform="translate(-1.38 -1.33)" style="fill:#fff"/><circle cx="60.17" cy="10.17" r="1.16" style="fill:#fff"/><circle cx="94.73" cy="15.31" r="15.31" style="fill:#33ac5c"/><path d="M93,25.47A11.49,11.49,0,0,0,104.58,13.9q0-.26,0-.53a8.27,8.27,0,0,0,2-2.11,8.12,8.12,0,0,1-2.34.64,4.08,4.08,0,0,0,1.79-2.25,8.15,8.15,0,0,1-2.58,1,4.07,4.07,0,0,0-6.93,3.71,11.55,11.55,0,0,1-8.38-4.25,4.07,4.07,0,0,0,1.26,5.43A4,4,0,0,1,87.58,15s0,0,0,.05a4.07,4.07,0,0,0,3.26,4,4.06,4.06,0,0,1-1.84.07A4.07,4.07,0,0,0,92.8,22a8.16,8.16,0,0,1-5.05,1.74,8.28,8.28,0,0,1-1-.06A11.51,11.51,0,0,0,93,25.47" transform="translate(-1.38 -1.33)" style="fill:#fff"/><path d="M32,16.65A15.31,15.31,0,1,0,14.3,31.78V21.08H10.42V16.65H14.3V13.27c0-3.84,2.29-6,5.78-6a23.55,23.55,0,0,1,3.43.3v3.77H21.59a2.21,2.21,0,0,0-2.5,2.39v2.87h4.25l-.68,4.43H19.09v10.7A15.32,15.32,0,0,0,32,16.65Z" transform="translate(-1.38 -1.33)" style="fill:#33ac5c"/><path d="M22.66,21.08l.68-4.43H19.09V13.78a2.21,2.21,0,0,1,2.5-2.39h1.93V7.61a23.55,23.55,0,0,0-3.43-.3c-3.5,0-5.78,2.12-5.78,6v3.37H10.42v4.43H14.3v10.7a15.48,15.48,0,0,0,4.79,0V21.08Z" transform="translate(-1.38 -1.33)" style="fill:#fff"/><circle cx="134.43" cy="15.31" r="15.31" style="fill:#33ac5c"/><path d="M143.27,10.43a.35.35,0,0,0-.24-.26,1.22,1.22,0,0,0-.64,0s-14.31,5.14-15.13,5.71c-.18.12-.24.19-.26.28-.14.41.3.58.3.58L131,18a.4.4,0,0,0,.19,0c.84-.53,8.44-5.33,8.88-5.49.07,0,.12,0,.11.05-.18.62-6.78,6.49-6.78,6.49a.32.32,0,0,0,0,.07h0L133,22.75s-.14,1.12,1,0c.79-.79,1.56-1.45,1.94-1.77,1.27.88,2.63,1.84,3.22,2.35a1,1,0,0,0,.75.29c.56,0,.72-.64.72-.64s2.61-10.5,2.7-11.9c0-.14,0-.23,0-.32A1.18,1.18,0,0,0,143.27,10.43Z" transform="translate(-1.38 -1.33)" style="fill:#fff"/></svg>