<?xml version="1.0" encoding="utf-8"?>
<!-- Generator: Adobe Illustrator 21.0.2, SVG Export Plug-In . SVG Version: 6.00 Build 0)  -->
<svg version="1.1" id="Шар_1" xmlns="http://www.w3.org/2000/svg" xmlns:xlink="http://www.w3.org/1999/xlink" x="0px" y="0px"
	 viewBox="0 0 150.4 22.7" style="enable-background:new 0 0 150.4 22.7;" xml:space="preserve">
<style type="text/css">
	.st0{fill:#FFFFFF;}
</style>
<g>
	<path class="st0" d="M28.2,17.8L33,6.5h1l4.8,11.3h-1.3l-1.3-3h-5.3l-1.3,3H28.2z M31.4,13.5h4.2l-2.1-5L31.4,13.5z"/>
	<path class="st0" d="M47.9,15.7c-0.4,0.8-1,1.4-1.7,1.8s-1.5,0.6-2.4,0.6c-1.3,0-2.4-0.4-3.2-1.3s-1.3-2-1.3-3.3s0.4-2.4,1.3-3.3
		c0.8-0.9,1.9-1.3,3.2-1.3c0.8,0,1.5,0.2,2.2,0.5s1.2,0.8,1.6,1.5l-0.9,0.8c-0.3-0.5-0.7-0.9-1.2-1.2s-1.1-0.4-1.7-0.4
		c-1,0-1.7,0.3-2.4,1c-0.6,0.7-0.9,1.4-0.9,2.4s0.3,1.8,0.9,2.4c0.6,0.7,1.4,1,2.4,1c0.7,0,1.2-0.2,1.7-0.5s1-0.8,1.3-1.4L47.9,15.7
		z"/>
	<path class="st0" d="M51.6,17.8v-7.5h-3.1V9.1h7.4v1.2h-3.2v7.5H51.6z"/>
	<path class="st0" d="M57.1,17.8V9.1h1.2v8.8h-1.2V17.8z"/>
	<path class="st0" d="M64.1,17.8h-0.6l-3.7-8.7H61l2.8,6.5l2.7-6.5h1.3L64.1,17.8z"/>
	<path class="st0" d="M69.3,17.8V9.1h7v1.3h-5.8v2.2h3.8v1.3h-3.8v2.8h6.1V18L69.3,17.8L69.3,17.8z"/>
	<path class="st0" d="M78.4,17.8V6.5h1.2V11h5.7V6.5h1.2v11.3h-1.2v-5.5h-5.7v5.6L78.4,17.8L78.4,17.8z"/>
	<path class="st0" d="M87.8,17.8L91.6,9h0.7l3.8,8.8h-1.2l-1-2.2H90l-1,2.2H87.8z M90.5,14.5h2.9L92,11.1L90.5,14.5z"/>
	<path class="st0" d="M97.3,17.8V9.1h1l3,5.1l3-5.1h1v8.8h-1.2v-6.3l-2.9,4.9l-2.9-4.9v6.3C98.4,17.8,97.3,17.8,97.3,17.8z"/>
	<path class="st0" d="M107.2,16.7l0.6-1.2c0.5,0.4,1.1,0.7,1.7,0.9s1.2,0.3,1.7,0.3c0.7,0,1.2-0.2,1.6-0.5c0.4-0.3,0.6-0.7,0.6-1.2
		s-0.2-0.9-0.5-1.1c-0.4-0.2-1-0.4-1.8-0.4c-1.3,0-2.3-0.2-2.8-0.5s-0.8-0.9-0.8-1.7c0-0.7,0.3-1.3,0.8-1.8s1.3-0.7,2.2-0.7
		c0.7,0,1.3,0.1,1.9,0.3s1.2,0.5,1.7,0.9l-0.6,1.1c-0.5-0.4-1-0.7-1.5-0.8s-1-0.3-1.5-0.3c-0.6,0-1,0.1-1.3,0.3s-0.5,0.5-0.5,0.9
		s0.2,0.7,0.5,0.8c0.3,0.2,1,0.2,1.8,0.2c1.2,0,2.1,0.2,2.7,0.7s0.9,1.2,0.9,2.1c0,0.8-0.3,1.5-0.9,2s-1.4,0.8-2.4,0.8
		c-0.7,0-1.4-0.1-2.2-0.3C108.4,17.5,107.8,17.2,107.2,16.7z"/>
	<path class="st0" d="M118.5,17.8v-7.5h-3.1V9.1h7.4v1.2h-3.2v7.5H118.5z"/>
	<path class="st0" d="M123.9,17.8V9.1h7v1.3h-5.8v2.2h3.8v1.3h-3.8v2.8h6.1V18L123.9,17.8L123.9,17.8z"/>
	<path class="st0" d="M134,14v3.8h-1.2V9.1h5.1c0.8,0,1.3,0.2,1.8,0.7s0.7,1,0.7,1.8c0,0.6-0.2,1.2-0.5,1.6
		c-0.3,0.5-0.8,0.7-1.3,0.8l2.1,3.8h-1.3l-2.1-3.8C137.3,14,134,14,134,14z M134,12.7h4c0.4,0,0.7-0.1,0.9-0.3s0.3-0.5,0.3-0.9
		s-0.1-0.7-0.3-0.9s-0.5-0.3-0.9-0.3h-4V12.7z"/>
	<path class="st0" d="M141.9,16.7l0.6-1.2c0.5,0.4,1.1,0.7,1.7,0.9c0.6,0.2,1.2,0.3,1.7,0.3c0.7,0,1.2-0.2,1.6-0.5
		c0.4-0.3,0.6-0.7,0.6-1.2s-0.2-0.9-0.5-1.1c-0.4-0.2-1-0.4-1.8-0.4c-1.3,0-2.3-0.2-2.8-0.5s-0.8-0.9-0.8-1.7c0-0.7,0.3-1.3,0.8-1.8
		s1.3-0.7,2.2-0.7c0.7,0,1.3,0.1,1.9,0.3c0.6,0.2,1.2,0.5,1.7,0.9l-0.6,1.1c-0.5-0.4-1-0.7-1.5-0.8c-0.5-0.2-1-0.3-1.5-0.3
		c-0.6,0-1,0.1-1.3,0.3s-0.5,0.5-0.5,0.9s0.2,0.7,0.5,0.8c0.3,0.2,1,0.2,1.8,0.2c1.2,0,2.1,0.2,2.7,0.7c0.6,0.5,0.9,1.2,0.9,2.1
		c0,0.8-0.3,1.5-0.9,2c-0.6,0.5-1.4,0.8-2.4,0.8c-0.7,0-1.4-0.1-2.2-0.3C143.1,17.5,142.5,17.2,141.9,16.7z"/>
</g>
<g>
	<path class="st0" d="M26.7,8.2c-0.1-0.3-0.2-0.6-0.3-0.9c-0.1-0.1-0.2-0.2-0.2-0.2c-0.2-0.1-0.5,0-0.6,0.2
		c-0.8,0.6-1.5,1.1-2.3,1.7c-0.2,0.2-0.4,0.3-0.6,0.4C22.6,9,22.4,9,22.1,9H22c-0.3,0-0.5,0-0.8,0.1s-0.4,0.2-0.3,0.5
		c0.1,0.2,0.2,0.4,0.3,0.7c-0.3,0.2-0.5,0.3-0.8,0.5c0.1-0.2,0.2-0.4,0.2-0.6S20.4,10,20.2,10c-0.1-0.3-0.1-0.5-0.1-0.8
		C20,8.8,19.9,8.5,19.8,8c-0.1-0.2-0.1-0.3,0-0.5c0-0.1,0-0.2,0-0.2c-0.1-0.5-0.2-0.9-0.3-1.3c-0.1-0.2-0.1-0.3-0.2-0.4
		c-0.1,0-0.1-0.1-0.1-0.1C19,5,18.9,4.5,18.7,4c0,0,0,0,0.1,0c0.7-0.4,1.2-1.7,0.4-2.6C18.9,1,18.4,0.8,18,0.9s-0.6,0.4-0.7,0.8
		C17.2,2,17.1,2.3,17,2.5C16,2.1,15,2,14.1,2s-2,0.2-2.9,0.5c-0.1-0.3-0.2-0.6-0.3-0.9c-0.3-0.7-1-0.9-1.5-0.5
		C8.9,1.4,8.6,1.9,8.6,2.4C8.6,3,8.9,3.6,9.5,4C9.3,4.4,9.2,4.9,9.1,5.3C9,5.5,9,5.6,8.9,5.7c-0.1,0-0.1,0.1-0.2,0.2
		c0,0.2-0.1,0.3-0.4,0.2C8.2,6.1,8.2,6,8.2,6C7.8,5.9,7.4,5.7,7,5.5c-0.1-0.1-0.3-0.1-0.4,0C5.7,5.9,4.9,6.3,4.2,6.9
		C4.1,7,4,7.1,4,7.2c0.1,0.1,0.2,0.2,0.3,0.2c0.8,0.2,1.6,0.3,2.5,0.3C6.6,7.9,6.5,8,6.4,8.2C6.3,8.3,6.2,8.5,6.2,8.6
		C6,9,5.9,9.3,5.7,9.6C5.6,9.9,5.7,10,6,10c0.8-0.1,1.5-0.1,2.1-0.7C8,9.6,8,9.8,8,10.1c-0.4,0.1-0.7,0.3-1,0.4
		C5.5,11,4.2,11.8,3.2,13c-0.3,0.4-0.7,0.6-1.2,0.7c-0.2,0-0.3,0.1-0.4,0.1c-0.3,0.1-0.5,0.3-0.6,0.5c-0.1,0.1-0.1,0.3,0,0.3
		c0.1,0.1,0.2,0.1,0.4,0.1c0.1,0,0.2,0,0.2-0.1c-0.1,0.2-0.1,0.3-0.1,0.5s0.1,0.3,0.2,0.4c0.2,0.1,0.4,0,0.5-0.2
		c0.1-0.1,0.1-0.1,0.1-0.2c0,0.2,0.1,0.4,0.2,0.4c0.2,0.1,0.3-0.1,0.4-0.1c0.1,0.1,0.2,0.3,0.3,0.3c0.1,0.3,0.2,0.1,0.2-0.1
		c0.1-0.2,0.2-0.4,0.3-0.6c0.1-0.1,0.1-0.2,0.1-0.2c0.4-0.3,0.6-0.6,1-0.8c1-0.6,2.1-0.8,3.2-0.5c0,0.1,0,0.2,0,0.3
		c0,0.3-0.1,0.6-0.1,0.9C8,14.8,8,14.9,7.8,15c-0.8,0.5-1.4,1.2-1.9,2s-0.4,1.7-0.1,2.5C6,19.8,6.1,20,6.1,20.2
		c-0.1,0-0.2,0.1-0.2,0.1c-0.3,0.1-0.6,0.2-0.8,0.5c-0.3,0.4-0.2,0.8,0.3,1c0.1,0.1,0.2,0.1,0.3,0.1C6.4,22,7.1,22,7.8,21.8
		c1.1-0.2,2.2-0.7,3.1-1.3c0.1-0.1,0.2-0.1,0.3-0.1c0.3,0.1,0.5,0.2,0.8,0.2c1,0.1,2,0.2,2.9,0.2c0.1,0,0.2,0.1,0.3,0.1
		c0,0.2-0.1,0.3-0.1,0.4s0,0.4,0.2,0.5s0.4,0.1,0.5-0.1c0.1-0.1,0.2-0.2,0.2-0.3c0.1-0.1,0.1-0.2,0.1-0.3c0.1,0.1,0.1,0.1,0.2,0.1
		c0.2,0.1,0.4,0.3,0.5,0.4c0.3,0.2,0.5,0.1,0.6-0.3c0.2,0.1,0.4,0,0.6-0.1c0.3-0.1,0.5-0.1,0.7,0c1.1,0.5,2.2,0.7,3.4,0.6
		c0.2,0,0.4-0.1,0.6-0.1c0.3-0.1,0.4-0.4,0.4-0.7c-0.1-0.3-0.3-0.5-0.5-0.6s-0.4-0.2-0.6-0.3c0.1-0.3,0.2-0.5,0.3-0.7
		c0.4-1,0.3-2-0.4-2.9c-0.4-0.5-0.8-1-1.3-1.3C20,15,19.8,14.8,20,14.4v-0.1c-0.1-0.5-0.1-0.9-0.1-1.4c0.6-0.4,1.2-0.8,1.9-1.2
		c0.1,0.1,0.2,0.2,0.2,0.3c0.1,0.1,0.2,0.2,0.3,0.1c0.3-0.1,0.6-0.1,0.9-0.2c0.2-0.1,0.3-0.2,0.4-0.3s0-0.2-0.1-0.3
		c-0.1-0.2-0.2-0.3-0.2-0.5c0.7-0.5,1.5-1,2.2-1.5c0.4-0.3,0.7-0.6,1.1-0.9C26.6,8.5,26.7,8.3,26.7,8.2z M2,15.4
		c-0.1,0.1-0.2,0.2-0.3,0.2c-0.2-0.1-0.2-0.2-0.2-0.3s0-0.2,0.1-0.2c0.1-0.3,0.2-0.4,0.5-0.4c0.1,0,0.2,0,0.3,0.1
		C2.3,14.9,2.2,15.1,2,15.4z M2.9,15c0,0.2-0.1,0.4-0.2,0.5c-0.1,0.1-0.2,0.1-0.3,0.1s-0.1-0.2-0.1-0.2c0.1-0.2,0.1-0.4,0.2-0.5
		c0.1-0.1,0.2-0.2,0.3-0.1C2.9,14.8,2.9,14.9,2.9,15z M4.3,14.2c-0.1,0.1-0.2,0.2-0.3,0.3c-0.3,0.2-0.4,0.4-0.5,0.7
		c-0.1,0.2-0.2,0.4-0.3,0.6H3.1c0-0.1,0-0.2,0-0.3c0-0.2,0.1-0.3,0.1-0.4c0-0.2-0.1-0.4-0.3-0.4c-0.3-0.1-0.6-0.1-0.8-0.2
		c-0.2,0-0.3,0.1-0.4,0.1c-0.2,0.1-0.3,0.1-0.5,0.1c0.1-0.2,0.2-0.4,0.3-0.4C1.7,14.2,2,14.1,2.2,14s0.3-0.1,0.5-0.2
		c0.2-0.1,0.3-0.2,0.4-0.2c0.2,0.1,0.4-0.1,0.6-0.1c-0.1,0.1-0.1,0.1-0.2,0.2c0.2,0,0.3,0,0.4-0.1c0,0.1,0,0.2,0,0.3
		c0.2,0,0.2,0,0.2,0c0,0.1,0,0.1,0,0.2C4.3,14,4.4,14,4.5,13.9C4.3,14.1,4.3,14.2,4.3,14.2z M19,2.3c0,0.3-0.1,0.6-0.4,0.8
		c-0.2,0.1-0.3,0.2-0.5,0.3C18,3.3,18,3.2,17.9,3.1c0.3-0.1,0.4-0.2,0.5-0.4c0.1-0.3,0.2-0.5,0.3-0.8c0.1-0.2,0-0.3-0.2-0.4
		C18.9,1.8,19,2,19,2.3z M17.3,2.6c0.1-0.4,0.2-0.7,0.4-1.1c0.1-0.1,0.2-0.2,0.3-0.3c0,0,0.1,0,0.1,0.1v0.1
		c-0.2,0.3-0.2,0.6-0.3,0.9c0,0.2-0.1,0.3-0.2,0.5c0,0.1-0.1,0.1-0.2,0.1C17.3,2.7,17.3,2.6,17.3,2.6z M17.3,7.7
		c0,0.5-0.7,0.7-1.2,0.5C16.4,7.9,16.8,7.7,17.3,7.7z M13.4,9.2c0.3-0.1,0.5-0.1,0.7-0.1c0.3,0.1,0.5,0.1,0.7,0.1s0.3,0.2,0.1,0.3
		c-0.5,0.5-1.1,0.5-1.6,0C13.1,9.4,13.1,9.3,13.4,9.2z M14.1,11.6c0-0.3,0-0.5,0.1-0.8c0.2,0.1,0.3,0.1,0.5,0.2
		c-0.1,0.2-0.1,0.5-0.2,0.7c0,0.1-0.1,0.2-0.2,0.2c-0.4,0.1-0.5,0-0.5-0.4c-0.1-0.2-0.1-0.4-0.1-0.5c0.2-0.1,0.3-0.1,0.4-0.2
		C14.1,11.1,14.1,11.4,14.1,11.6L14.1,11.6z M12,8.2c-0.3,0.2-1.1-0.1-1.1-0.5C11.3,7.6,11.7,7.9,12,8.2z M9.2,2.3
		c0-0.3,0.2-0.4,0.3-0.6C9.7,1.5,9.9,1.6,10,1.9c0,0.1,0,0.2,0.1,0.4c0,0.1,0.1,0.1,0.1,0.2c0-0.1-0.1-0.1-0.1-0.2
		C10,2.2,10,2.1,9.9,2c0-0.2-0.1-0.3-0.3-0.3c0,0.1,0,0.2,0,0.2c0,0.1-0.1,0.2-0.1,0.3c0,0.3,0.1,0.5,0.2,0.7C9.8,3,10,3.1,10.3,3.1
		C10.2,3.2,10,3.4,10,3.5C9.4,3.2,9.1,2.8,9.2,2.3z M8.3,9c0.1-0.4,0.2-0.7,0.3-1.1c1,0.8,2.3,1,3.5,1.2c0.3,0.1,0.6,0.1,0.9,0.2
		c0.1,0.5,0.6,0.6,1,0.8c0.1,0.7,0.1,0.6-0.5,0.8C13.3,11,13,11,12.8,11c-0.3,0-0.5-0.2-0.5-0.5c0-0.1,0.1-0.2,0.1-0.2
		c-0.2-0.1-0.3-0.1-0.4,0.2c0.1,0,0.1,0,0.2,0c0.1,0.6,0.4,0.9,1.3,0.7c0.1,0.2,0.1,0.4,0.2,0.6c0.1,0.2,0.1,0.3,0.2,0.4
		c0.2,0.1,0.5,0.1,0.7,0c0.1,0,0.1-0.1,0.1-0.2c0.1-0.3,0.1-0.5,0.2-0.7c0.2,0,0.4,0,0.6,0c0.5-0.1,0.6-0.3,0.7-0.7
		c0.1,0,0.1,0,0.2,0c-0.1-0.1-0.1-0.1-0.1-0.2c-0.1-0.1-0.2-0.1-0.4-0.1c0.2,0.2,0.1,0.3,0.1,0.5c-0.1,0.2-0.2,0.3-0.4,0.3
		c-0.4,0.1-0.8-0.1-1.1-0.3c-0.1,0-0.1-0.1-0.1-0.2c0-0.2,0-0.3,0-0.4c0.5-0.2,0.9-0.3,1-0.7c0.7-0.2,1.5-0.3,2.2-0.5
		s1.4-0.4,2.1-0.9c0.2,0.8,0.5,1.4,0.5,2.2c0,0.4-0.2,0.7-0.4,1.1c-0.4,0.7-1,1.2-1.8,1.6c-0.6,0.3-1.3,0.5-2,0.7
		c-0.1,0-0.1,0.1-0.2,0.1c0.4,0,1.4-0.2,2.4-0.7c-2.2,2.5-5,3.2-8.2,2.9c-0.2-1.1,0-2,0.2-3c0.6,0.2,1.1,0.4,1.7,0.5
		c-0.4-0.1-0.8-0.3-1.2-0.4c-0.6-0.2-1.1-0.5-1.6-0.9C8.3,11.3,7.9,10.3,8.3,9z M6.5,21.6L6.5,21.6c0.1-0.3,0.2-0.5,0.3-0.8
		C6.5,21,6.4,21.2,6.5,21.6c-0.4-0.1-0.6-0.1-0.9-0.1c-0.1,0-0.2-0.1-0.1-0.2c0.1-0.2,0.2-0.3,0.3-0.5c-0.2,0.1-0.3,0.3-0.4,0.5
		c-0.1-0.3,0-0.4,0.2-0.5c0.4-0.3,0.8-0.5,1.3-0.4c0.7,0.1,1.4,0.3,2.1,0.4c0.3,0.1,0.6,0.1,0.8,0.1C8.7,21.3,7.7,21.6,6.5,21.6z
		 M14.2,20.3c-0.1,0.2-0.3,0.2-0.5,0.2c-0.5-0.1-1-0.1-1.5-0.1c-0.4-0.1-0.8-0.3-1.1-0.5c-0.8-0.7-1.2-1.5-1.3-2.6
		c0-0.3-0.1-0.6-0.1-0.8c2.3,0.2,4.4-0.1,6.4-1.1c-0.2,0.5-0.3,0.9-0.4,1.4c-0.2,0.6-0.2,1.3-0.4,1.9c-0.1,0.3-0.2,0.6-0.2,0.9
		c-0.1,0.1-0.1,0.2-0.2,0.3C14.7,20,14.5,20.1,14.2,20.3C14.3,20.3,14.2,20.3,14.2,20.3z M17,20.8c0.1,0.2,0.1,0.4,0.2,0.6l-0.1,0.1
		c-0.1-0.1-0.2-0.1-0.3-0.1c-0.2-0.1-0.3-0.2-0.4-0.3c-0.2-0.2-0.4-0.2-0.5-0.2c0,0.2-0.1,0.3-0.1,0.5c-0.1,0.2-0.2,0.2-0.3,0.2
		s-0.2-0.1-0.2-0.2c0-0.2,0-0.3,0.1-0.5s0-0.2-0.2-0.3c-0.2-0.1-0.3-0.1-0.4-0.1c-0.2,0-0.4-0.1-0.5-0.1v-0.1
		c0.4-0.2,0.7-0.5,1.1-0.7c0.1,0.1,0.1,0.1,0.1,0.1l0.1-0.1c0,0.1,0.1,0.1,0.1,0.2c0.1-0.1,0.2-0.2,0.3-0.2c0.1,0.1,0.1,0.1,0.1,0.2
		c0.1-0.2,0.1,0.1,0.2,0.1c0-0.1,0.1-0.1,0.1-0.2c0.1,0.1,0.1,0.2,0.2,0.2c0.1-0.1,0.1-0.1,0.1-0.2c0.4,0.3,0.9,0.5,1.2,1
		C17.5,21.2,17.3,20.9,17,20.8z M20.8,20.5c0.2,0,0.4-0.1,0.5-0.1c0.5-0.1,0.9,0.1,1.3,0.3c0.2,0.1,0.3,0.3,0.3,0.5
		c-0.2-0.2-0.3-0.3-0.4-0.5c0,0-0.1,0-0.1,0.1c0.1,0.2,0.3,0.4,0.3,0.7c-0.3,0.1-0.6,0.2-0.9,0.2c-0.1-0.3-0.2-0.5-0.4-0.7
		c0.1,0.3,0.2,0.5,0.3,0.7c-1,0-2-0.2-2.9-0.6C19.4,20.7,20.1,20.5,20.8,20.5z"/>
	<path class="st0" d="M21.9,10.7C21.9,10.7,22,10.7,21.9,10.7L21.9,10.7L21.9,10.7C22,10.8,22,10.8,21.9,10.7
		C22,10.8,22,10.8,21.9,10.7C22,10.7,21.9,10.7,21.9,10.7L21.9,10.7L21.9,10.7L21.9,10.7z"/>
	<path class="st0" d="M21.7,10.6c0.1,0.1,0.1,0.1,0.1,0.1C21.9,10.6,21.9,10.6,21.7,10.6z"/>
	<path class="st0" d="M22.1,10.8L22.1,10.8L22.1,10.8L22.1,10.8L22.1,10.8z"/>
</g>
</svg>
