<?xml version="1.0" encoding="utf-8"?>
<!-- Generator: Adobe Illustrator 21.0.2, SVG Export Plug-In . SVG Version: 6.00 Build 0)  -->
<svg version="1.1" id="Шар_1" xmlns="http://www.w3.org/2000/svg" xmlns:xlink="http://www.w3.org/1999/xlink" x="0px" y="0px"
	 viewBox="0 0 14.5 13.9" style="enable-background:new 0 0 14.5 13.9;" xml:space="preserve">
<style type="text/css">
	.st0{fill:#197069;}
</style>
<path class="st0" d="M-1,13.1c-0.3,0-0.5-0.2-0.5-0.5c0-1.3-1.1-2.3-2.3-2.3h-6.5c-1.3,0-2.3,1.1-2.3,2.3c0,0.3-0.2,0.5-0.5,0.5
	c-0.3,0-0.5-0.2-0.5-0.5c0-1.9,1.5-3.4,3.4-3.4h6.4c1.9,0,3.4,1.5,3.4,3.4C-0.5,12.8-0.7,13.1-1,13.1z"/>
<path class="st0" d="M-6.9,8.2c-2.1,0-3.8-1.7-3.8-3.8S-9,0.6-6.9,0.6s3.8,1.7,3.8,3.8S-4.8,8.2-6.9,8.2z M-6.9,1.6
	c-1.5,0-2.7,1.2-2.7,2.7S-8.4,7-6.9,7s2.7-1.2,2.7-2.7S-5.4,1.6-6.9,1.6z"/>
<path class="st0" d="M13,2.9H1.5c-0.3,0-0.6-0.3-0.6-0.6s0.3-0.6,0.6-0.6H13c0.3,0,0.6,0.3,0.6,0.6S13.3,2.9,13,2.9z"/>
<path class="st0" d="M13,7.6H1.5c-0.3,0-0.6-0.3-0.6-0.6s0.3-0.6,0.6-0.6H13c0.3,0,0.6,0.3,0.6,0.6S13.3,7.6,13,7.6z"/>
<path class="st0" d="M13,12.2H1.5c-0.3,0-0.6-0.3-0.6-0.6S1.2,11,1.5,11H13c0.3,0,0.6,0.3,0.6,0.6S13.3,12.2,13,12.2z"/>
</svg>
