<?xml version="1.0" encoding="utf-8"?>
<!-- Generator: Adobe Illustrator 21.0.2, SVG Export Plug-In . SVG Version: 6.00 Build 0)  -->
<svg version="1.1" id="Шар_1" xmlns="http://www.w3.org/2000/svg" xmlns:xlink="http://www.w3.org/1999/xlink" x="0px" y="0px"
	 viewBox="0 0 14.5 13.9" style="enable-background:new 0 0 14.5 13.9;" xml:space="preserve">
<style type="text/css">
	.st0{fill:#197069;}
</style>
<path class="st0" d="M13.4,13.1c-0.3,0-0.5-0.2-0.5-0.5c0-1.3-1.1-2.3-2.3-2.3H4.1c-1.3,0-2.3,1.1-2.3,2.3c0,0.3-0.2,0.5-0.5,0.5
	s-0.5-0.2-0.5-0.5c0-1.9,1.5-3.4,3.4-3.4h6.4c1.9,0,3.4,1.5,3.4,3.4C13.9,12.8,13.7,13.1,13.4,13.1z"/>
<path class="st0" d="M7.5,8.2c-2.1,0-3.8-1.7-3.8-3.8s1.7-3.8,3.8-3.8s3.8,1.7,3.8,3.8S9.6,8.2,7.5,8.2z M7.5,1.6
	c-1.5,0-2.7,1.2-2.7,2.7s1.2,2.7,2.7,2.7s2.7-1.2,2.7-2.7S9,1.6,7.5,1.6z"/>
</svg>
