<?xml version="1.0" encoding="utf-8"?>
<!-- Generator: Adobe Illustrator 21.0.2, SVG Export Plug-In . SVG Version: 6.00 Build 0)  -->
<svg version="1.1" id="Шар_1" xmlns="http://www.w3.org/2000/svg" xmlns:xlink="http://www.w3.org/1999/xlink" x="0px" y="0px"
	 viewBox="0 0 150.4 3.8" style="enable-background:new 0 0 150.4 3.8;" xml:space="preserve">
<style type="text/css">
	.st0{fill:#FFFFFF;}
</style>
<g>
	<path class="st0" d="M1.2,2.4C1,2.4,0.8,2.3,0.7,2.2C0.5,2,0.5,1.9,0.5,1.7c0-0.1,0-0.2,0-0.3c0-0.1,0.1-0.2,0.1-0.2
		C0.9,1,1.2,0.9,1.4,1c0.1,0,0.2,0.1,0.2,0.2c0.1,0.1,0.1,0.1,0.1,0.2c0,0.1,0,0.2,0,0.3c0,0.2-0.1,0.4-0.2,0.5
		C1.5,2.3,1.4,2.4,1.2,2.4z"/>
	<path class="st0" d="M145.1,1.7c0-0.4,0.3-0.7,0.7-0.7l0,0c0.4,0,0.7,0.3,0.7,0.7l0,0c0,0.4-0.3,0.7-0.7,0.7l0,0
		C145.4,2.4,145.1,2.1,145.1,1.7z M142.3,1.7c0-0.4,0.3-0.7,0.7-0.7l0,0c0.4,0,0.7,0.3,0.7,0.7l0,0c0,0.4-0.3,0.7-0.7,0.7l0,0
		C142.6,2.4,142.3,2.1,142.3,1.7z M139.5,1.7c0-0.4,0.3-0.7,0.7-0.7l0,0c0.4,0,0.7,0.3,0.7,0.7l0,0c0,0.4-0.3,0.7-0.7,0.7l0,0
		C139.8,2.4,139.5,2.1,139.5,1.7z M136.6,1.7c0-0.4,0.3-0.7,0.7-0.7l0,0c0.4,0,0.7,0.3,0.7,0.7l0,0c0,0.4-0.3,0.7-0.7,0.7l0,0
		C136.9,2.4,136.6,2.1,136.6,1.7z M133.8,1.7c0-0.4,0.3-0.7,0.7-0.7l0,0c0.4,0,0.7,0.3,0.7,0.7l0,0c0,0.4-0.3,0.7-0.7,0.7l0,0
		C134.1,2.4,133.8,2.1,133.8,1.7z M130.9,1.7c0-0.4,0.3-0.7,0.7-0.7l0,0c0.4,0,0.7,0.3,0.7,0.7l0,0c0,0.4-0.3,0.7-0.7,0.7l0,0
		C131.3,2.4,130.9,2.1,130.9,1.7z M128.1,1.7c0-0.4,0.3-0.7,0.7-0.7l0,0c0.4,0,0.7,0.3,0.7,0.7l0,0c0,0.4-0.3,0.7-0.7,0.7l0,0
		C128.4,2.4,128.1,2.1,128.1,1.7z M125.3,1.7c0-0.4,0.3-0.7,0.7-0.7l0,0c0.4,0,0.7,0.3,0.7,0.7l0,0c0,0.4-0.3,0.7-0.7,0.7l0,0
		C125.6,2.4,125.3,2.1,125.3,1.7z M122.4,1.7c0-0.4,0.3-0.7,0.7-0.7l0,0c0.4,0,0.7,0.3,0.7,0.7l0,0c0,0.4-0.3,0.7-0.7,0.7l0,0
		C122.8,2.4,122.4,2.1,122.4,1.7z M119.6,1.7c0-0.4,0.3-0.7,0.7-0.7l0,0c0.4,0,0.7,0.3,0.7,0.7l0,0c0,0.4-0.3,0.7-0.7,0.7l0,0
		C119.9,2.4,119.6,2.1,119.6,1.7z M116.8,1.7c0-0.4,0.3-0.7,0.7-0.7l0,0c0.4,0,0.7,0.3,0.7,0.7l0,0c0,0.4-0.3,0.7-0.7,0.7l0,0
		C117.1,2.4,116.8,2.1,116.8,1.7z M113.9,1.7c0-0.4,0.3-0.7,0.7-0.7l0,0c0.4,0,0.7,0.3,0.7,0.7l0,0c0,0.4-0.3,0.7-0.7,0.7l0,0
		C114.2,2.4,113.9,2.1,113.9,1.7z M111.1,1.7c0-0.4,0.3-0.7,0.7-0.7l0,0c0.4,0,0.7,0.3,0.7,0.7l0,0c0,0.4-0.3,0.7-0.7,0.7l0,0
		C111.4,2.4,111.1,2.1,111.1,1.7z M108.3,1.7c0-0.4,0.3-0.7,0.7-0.7l0,0c0.4,0,0.7,0.3,0.7,0.7l0,0c0,0.4-0.3,0.7-0.7,0.7l0,0
		C108.6,2.4,108.3,2.1,108.3,1.7z M105.4,1.7c0-0.4,0.3-0.7,0.7-0.7l0,0c0.4,0,0.7,0.3,0.7,0.7l0,0c0,0.4-0.3,0.7-0.7,0.7l0,0
		C105.7,2.4,105.4,2.1,105.4,1.7z M102.6,1.7c0-0.4,0.3-0.7,0.7-0.7l0,0c0.4,0,0.7,0.3,0.7,0.7l0,0c0,0.4-0.3,0.7-0.7,0.7l0,0
		C102.9,2.4,102.6,2.1,102.6,1.7z M99.7,1.7c0-0.4,0.3-0.7,0.7-0.7l0,0c0.4,0,0.7,0.3,0.7,0.7l0,0c0,0.4-0.3,0.7-0.7,0.7l0,0
		C100,2.4,99.7,2.1,99.7,1.7z M96.9,1.7c0-0.4,0.3-0.7,0.7-0.7l0,0c0.4,0,0.7,0.3,0.7,0.7l0,0c0,0.4-0.3,0.7-0.7,0.7l0,0
		C97.2,2.4,96.9,2.1,96.9,1.7z M94.1,1.7c0-0.4,0.3-0.7,0.7-0.7l0,0c0.4,0,0.7,0.3,0.7,0.7l0,0c0,0.4-0.3,0.7-0.7,0.7l0,0
		C94.4,2.4,94.1,2.1,94.1,1.7z M91.2,1.7c0-0.4,0.3-0.7,0.7-0.7l0,0c0.4,0,0.7,0.3,0.7,0.7l0,0c0,0.4-0.3,0.7-0.7,0.7l0,0
		C91.5,2.4,91.2,2.1,91.2,1.7z M88.4,1.7c0-0.4,0.3-0.7,0.7-0.7l0,0c0.4,0,0.7,0.3,0.7,0.7l0,0c0,0.4-0.3,0.7-0.7,0.7l0,0
		C88.7,2.4,88.4,2.1,88.4,1.7z M85.5,1.7c0-0.4,0.3-0.7,0.7-0.7l0,0C86.6,1,87,1.3,87,1.7l0,0c0,0.4-0.3,0.7-0.7,0.7l0,0
		C85.9,2.4,85.5,2.1,85.5,1.7z M82.7,1.7C82.7,1.3,83,1,83.4,1l0,0c0.4,0,0.7,0.3,0.7,0.7l0,0c0,0.4-0.3,0.7-0.7,0.7l0,0
		C83,2.4,82.7,2.1,82.7,1.7z M79.9,1.7c0-0.4,0.3-0.7,0.7-0.7l0,0c0.4,0,0.7,0.3,0.7,0.7l0,0c0,0.4-0.3,0.7-0.7,0.7l0,0
		C80.2,2.4,79.9,2.1,79.9,1.7z M77,1.7C77,1.3,77.4,1,77.8,1l0,0c0.4,0,0.7,0.3,0.7,0.7l0,0c0,0.4-0.3,0.7-0.7,0.7l0,0
		C77.4,2.4,77,2.1,77,1.7z M74.2,1.7c0-0.4,0.3-0.7,0.7-0.7l0,0c0.4,0,0.7,0.3,0.7,0.7l0,0c0,0.4-0.3,0.7-0.7,0.7l0,0
		C74.5,2.4,74.2,2.1,74.2,1.7z M71.4,1.7c0-0.4,0.3-0.7,0.7-0.7l0,0c0.4,0,0.7,0.3,0.7,0.7l0,0c0,0.4-0.3,0.7-0.7,0.7l0,0
		C71.7,2.4,71.4,2.1,71.4,1.7z M68.5,1.7c0-0.4,0.3-0.7,0.7-0.7l0,0c0.4,0,0.7,0.3,0.7,0.7l0,0c0,0.4-0.3,0.7-0.7,0.7l0,0
		C68.8,2.4,68.5,2.1,68.5,1.7z M65.7,1.7C65.7,1.3,66,1,66.4,1l0,0c0.4,0,0.7,0.3,0.7,0.7l0,0c0,0.4-0.3,0.7-0.7,0.7l0,0
		C66,2.4,65.7,2.1,65.7,1.7z M62.9,1.7c0-0.4,0.3-0.7,0.7-0.7l0,0c0.4,0,0.7,0.3,0.7,0.7l0,0c0,0.4-0.3,0.7-0.7,0.7l0,0
		C63.2,2.4,62.9,2.1,62.9,1.7z M60,1.7C60,1.3,60.3,1,60.7,1l0,0c0.4,0,0.7,0.3,0.7,0.7l0,0c0,0.4-0.3,0.7-0.7,0.7l0,0
		C60.3,2.4,60,2.1,60,1.7z M57.2,1.7c0-0.4,0.3-0.7,0.7-0.7l0,0c0.4,0,0.7,0.3,0.7,0.7l0,0c0,0.4-0.3,0.7-0.7,0.7l0,0
		C57.5,2.4,57.2,2.1,57.2,1.7z M54.3,1.7c0-0.4,0.3-0.7,0.7-0.7l0,0c0.4,0,0.7,0.3,0.7,0.7l0,0c0,0.4-0.3,0.7-0.7,0.7l0,0
		C54.7,2.4,54.3,2.1,54.3,1.7z M51.5,1.7c0-0.4,0.3-0.7,0.7-0.7l0,0c0.4,0,0.7,0.3,0.7,0.7l0,0c0,0.4-0.3,0.7-0.7,0.7l0,0
		C51.8,2.4,51.5,2.1,51.5,1.7z M48.7,1.7C48.7,1.3,49,1,49.4,1l0,0c0.4,0,0.7,0.3,0.7,0.7l0,0c0,0.4-0.3,0.7-0.7,0.7l0,0
		C49,2.4,48.7,2.1,48.7,1.7z M45.8,1.7c0-0.4,0.3-0.7,0.7-0.7l0,0c0.4,0,0.7,0.3,0.7,0.7l0,0c0,0.4-0.3,0.7-0.7,0.7l0,0
		C46.2,2.4,45.8,2.1,45.8,1.7z M43,1.7C43,1.3,43.3,1,43.7,1l0,0c0.4,0,0.7,0.3,0.7,0.7l0,0c0,0.4-0.3,0.7-0.7,0.7l0,0
		C43.3,2.4,43,2.1,43,1.7z M40.2,1.7c0-0.4,0.3-0.7,0.7-0.7l0,0c0.4,0,0.7,0.3,0.7,0.7l0,0c0,0.4-0.3,0.7-0.7,0.7l0,0
		C40.5,2.4,40.2,2.1,40.2,1.7z M37.3,1.7C37.3,1.3,37.6,1,38,1l0,0c0.4,0,0.7,0.3,0.7,0.7l0,0c0,0.4-0.3,0.7-0.7,0.7l0,0
		C37.6,2.4,37.3,2.1,37.3,1.7z M34.5,1.7c0-0.4,0.3-0.7,0.7-0.7l0,0c0.4,0,0.7,0.3,0.7,0.7l0,0c0,0.4-0.3,0.7-0.7,0.7l0,0
		C34.8,2.4,34.5,2.1,34.5,1.7z M31.7,1.7C31.7,1.3,32,1,32.4,1l0,0c0.4,0,0.7,0.3,0.7,0.7l0,0c0,0.4-0.3,0.7-0.7,0.7l0,0
		C32,2.4,31.7,2.1,31.7,1.7z M28.8,1.7c0-0.4,0.3-0.7,0.7-0.7l0,0c0.4,0,0.7,0.3,0.7,0.7l0,0c0,0.4-0.3,0.7-0.7,0.7l0,0
		C29.1,2.4,28.8,2.1,28.8,1.7z M26,1.7C26,1.3,26.3,1,26.7,1l0,0c0.4,0,0.7,0.3,0.7,0.7l0,0c0,0.4-0.3,0.7-0.7,0.7l0,0
		C26.3,2.4,26,2.1,26,1.7z M23.1,1.7c0-0.4,0.3-0.7,0.7-0.7l0,0c0.4,0,0.7,0.3,0.7,0.7l0,0c0,0.4-0.3,0.7-0.7,0.7l0,0
		C23.5,2.4,23.1,2.1,23.1,1.7z M20.3,1.7C20.3,1.3,20.6,1,21,1l0,0c0.4,0,0.7,0.3,0.7,0.7l0,0c0,0.4-0.3,0.7-0.7,0.7l0,0
		C20.6,2.4,20.3,2.1,20.3,1.7z M17.5,1.7c0-0.4,0.3-0.7,0.7-0.7l0,0c0.4,0,0.7,0.3,0.7,0.7l0,0c0,0.4-0.3,0.7-0.7,0.7l0,0
		C17.8,2.4,17.5,2.1,17.5,1.7z M14.6,1.7C14.6,1.3,15,1,15.3,1l0,0c0.4,0,0.7,0.3,0.7,0.7l0,0c0,0.4-0.3,0.7-0.7,0.7l0,0
		C15,2.4,14.6,2.1,14.6,1.7z M11.8,1.7c0-0.4,0.3-0.7,0.7-0.7l0,0c0.4,0,0.7,0.3,0.7,0.7l0,0c0,0.4-0.3,0.7-0.7,0.7l0,0
		C12.1,2.4,11.8,2.1,11.8,1.7z M9,1.7C9,1.3,9.3,1,9.7,1l0,0c0.4,0,0.7,0.3,0.7,0.7l0,0c0,0.4-0.3,0.7-0.7,0.7l0,0
		C9.3,2.4,9,2.1,9,1.7z M6.1,1.7C6.1,1.3,6.4,1,6.8,1l0,0c0.4,0,0.7,0.3,0.7,0.7l0,0c0,0.4-0.3,0.7-0.7,0.7l0,0
		C6.4,2.4,6.1,2.1,6.1,1.7z M3.3,1.7C3.3,1.3,3.6,1,4,1l0,0c0.4,0,0.7,0.3,0.7,0.7l0,0c0,0.4-0.3,0.7-0.7,0.7l0,0
		C3.6,2.4,3.3,2.1,3.3,1.7z"/>
	<path class="st0" d="M148.7,2.4c-0.2,0-0.4-0.1-0.5-0.2C148.1,2.1,148,2,148,1.9c0-0.1,0-0.2,0-0.3c0-0.2,0.1-0.4,0.2-0.5
		c0.3-0.3,0.7-0.3,1,0c0.1,0.1,0.2,0.3,0.2,0.5c0,0.1,0,0.2-0.1,0.3c0,0.1-0.1,0.2-0.1,0.2c-0.1,0.1-0.2,0.1-0.2,0.1
		C148.8,2.4,148.8,2.4,148.7,2.4z"/>
</g>
</svg>
